<svg width="60" height="60" viewBox="0 0 60 60" fill="none" xmlns="http://www.w3.org/2000/svg">
<path d="M29.3154 26.6921C36.8754 26.6921 44.4354 26.7621 51.9954 26.6921C54.3054 26.6921 55.1654 27.4821 55.0854 29.8021C54.9554 33.9821 55.0854 38.1621 55.0354 42.3421C54.9654 47.6521 52.7954 49.8321 47.5654 49.8421C35.4654 49.8421 23.3654 49.8421 11.2654 49.8421C6.07544 49.8421 4.0554 47.7621 4.0354 42.5221C4.0354 38.6088 4.0354 34.6954 4.0354 30.7821C4.0354 26.7821 4.03545 26.7821 7.96545 26.7821L29.3154 26.6921ZM31.1555 38.6921C29.4655 38.6921 27.7754 38.6921 26.0854 38.6921C25.3354 38.6921 24.5654 38.9621 24.5554 39.8321C24.5638 39.991 24.6048 40.1465 24.6759 40.2889C24.747 40.4312 24.8466 40.5574 24.9685 40.6597C25.0904 40.7619 25.2321 40.838 25.3847 40.8831C25.5373 40.9283 25.6975 40.9415 25.8554 40.9221C29.2354 40.9621 32.6154 40.9621 35.9954 40.9221C36.1532 40.9388 36.3128 40.9224 36.4639 40.8739C36.615 40.8254 36.7543 40.7459 36.8729 40.6405C36.9915 40.5351 37.0868 40.406 37.1526 40.2617C37.2185 40.1173 37.2535 39.9608 37.2554 39.8021C37.2456 39.6437 37.2037 39.489 37.1321 39.3474C37.0606 39.2057 36.961 39.0801 36.8394 38.9781C36.7178 38.8761 36.5767 38.7999 36.4247 38.7542C36.2728 38.7085 36.1131 38.6942 35.9554 38.7121C34.3554 38.6221 32.7554 38.6521 31.1254 38.6521L31.1555 38.6921Z" fill="black"/>
<path d="M29.6154 18.8522C22.0554 18.8522 14.5054 18.7722 6.94542 18.9022C4.50542 18.9022 3.85544 17.9923 4.02544 15.7523C4.29544 12.2023 6.63542 10.0422 10.6954 10.0222C19.2254 9.97222 27.7654 10.0222 36.2954 10.0222C40.3854 10.0222 44.4754 9.97222 48.5554 10.0222C52.3754 10.0922 54.4554 12.0823 54.9754 15.8123C55.2654 17.9423 54.6054 18.9123 52.2754 18.8823C44.7254 18.7923 37.1254 18.8522 29.6154 18.8522Z" fill="black"/>
</svg>
