<svg width="60" height="60" viewBox="0 0 60 60" fill="none" xmlns="http://www.w3.org/2000/svg">
<path d="M2.01964 25.27C2.01964 20.83 2.01964 16.38 2.01964 11.93C2.01964 8.56996 3.56963 7.05 6.94963 7.03C15.7496 6.99 24.553 6.99 33.3596 7.03C37.1496 7.03 38.7096 8.37998 38.9496 12.26C39.0896 14.35 39.7096 15.26 41.9496 15.26C43.1983 15.2146 44.4402 15.4623 45.5759 15.9832C46.7116 16.5042 47.7095 17.2839 48.4896 18.26C48.6596 18.47 48.8696 18.64 49.0496 18.83C56.7996 26.71 55.6696 24.05 55.7596 34.75C55.7596 36.19 55.8596 37.38 57.1996 38.48C59.3896 40.25 58.6596 43.09 55.8896 43.66C55.0354 43.7791 54.2346 44.1455 53.586 44.7141C52.9375 45.2827 52.4695 46.0286 52.2396 46.86C51.6442 48.5128 50.5268 49.927 49.0564 50.8886C47.5861 51.8502 45.8426 52.307 44.0896 52.19C42.3384 52.2436 40.6179 51.7208 39.1925 50.7019C37.7671 49.683 36.7157 48.2243 36.1996 46.55C35.5096 44.35 34.3396 43.8 32.3296 44.01C31.6205 44.06 30.9087 44.06 30.1996 44.01C27.3096 43.85 24.9196 43.75 23.7196 47.57C22.6296 51.05 19.2596 52.46 15.4996 52.16C13.8403 52.0803 12.244 51.4996 10.9212 50.4946C9.59839 49.4896 8.61116 48.1073 8.08963 46.53C7.50963 45 6.86963 43.99 5.13963 43.53C4.17588 43.29 3.33051 42.7115 2.75775 41.9001C2.185 41.0887 1.92304 40.0984 2.01964 39.11C2.03964 34.52 2.01964 29.9 2.01964 25.27ZM44.3596 29.46C45.5996 29.46 46.8396 29.46 48.0796 29.46C49.3196 29.46 49.9596 28.73 48.9596 27.65C47.2196 25.78 45.3996 23.96 43.4996 22.26C43.0068 21.8723 42.4126 21.6349 41.7883 21.5764C41.1639 21.5179 40.5359 21.6406 39.9796 21.93C38.8496 22.39 39.1396 23.57 39.1096 24.5C38.9496 29.5 38.9596 29.5 43.8296 29.5L44.3596 29.46ZM12.5196 43.46C12.4871 44.4825 12.8598 45.4764 13.5565 46.2256C14.2531 46.9747 15.2175 47.4183 16.2396 47.46C17.2115 47.3729 18.1255 46.9601 18.8334 46.2885C19.5413 45.617 20.0016 44.7259 20.1396 43.76C20.1462 43.2504 20.0524 42.7446 19.8635 42.2713C19.6746 41.7981 19.3943 41.3666 19.0387 41.0017C18.683 40.6367 18.2589 40.3454 17.7907 40.1444C17.3224 39.9433 16.8192 39.8365 16.3096 39.83C15.8121 39.8025 15.3143 39.8776 14.8471 40.0509C14.38 40.2241 13.9535 40.4917 13.5942 40.8369C13.2349 41.1821 12.9505 41.5976 12.7588 42.0575C12.567 42.5173 12.472 43.0118 12.4796 43.51L12.5196 43.46ZM48.0696 43.55C48.02 42.5876 47.6027 41.681 46.9039 41.0174C46.2052 40.3538 45.2783 39.9838 44.3146 39.9838C43.351 39.9838 42.4241 40.3538 41.7254 41.0174C41.0266 41.681 40.6093 42.5876 40.5596 43.55C40.5722 44.5345 40.9474 45.4799 41.6135 46.205C42.2796 46.9301 43.1897 47.384 44.1696 47.4799C45.181 47.431 46.1376 47.006 46.8517 46.2882C47.5658 45.5704 47.9859 44.6116 48.0296 43.6L48.0696 43.55Z" fill="black"/>
</svg>
