<svg width="60" height="60" viewBox="0 0 60 60" fill="none" xmlns="http://www.w3.org/2000/svg">
<path d="M30.2 23.9807C35.8 23.9807 41.41 24.0407 47 23.9807C49.07 23.9807 49.85 24.7007 49.82 26.7807C49.73 32.1107 49.82 37.4407 49.76 42.7807C49.68 47.6707 47.37 49.8507 42.43 49.8707C33.9767 49.8707 25.5333 49.8707 17.1 49.8707C12.1 49.8707 10.02 47.7607 10 42.7007C10 37.4507 10.07 32.2107 10 26.9607C10 24.7907 10.7 23.9607 12.91 23.9607C18.65 24.0707 24.43 23.9807 30.2 23.9807Z" fill="black"/>
<path d="M19.27 21.9208C16.78 21.9208 14.27 21.9208 11.81 21.9208C10.32 21.9208 9.81 21.3708 10.57 19.9808C10.7 19.7508 10.81 19.5008 10.93 19.2608C16.24 8.41079 14.66 10.1908 26.42 10.0108C28.1 10.0108 28.89 10.6508 28.87 12.3508C28.87 14.8308 28.87 17.3508 28.87 19.8108C28.87 21.2608 28.17 21.9108 26.75 21.9008H19.28L19.27 21.9208Z" fill="black"/>
<path d="M40.4 21.9109C38 21.9109 35.6001 21.9109 33.2001 21.9109C31.6701 21.9109 30.9 21.2708 30.93 19.6708C30.93 17.1808 30.93 14.6709 30.93 12.2109C30.93 10.6109 31.69 9.99087 33.23 10.0209C35.81 10.0209 38.39 10.0209 40.97 10.0209C41.737 9.97329 42.5026 10.1341 43.1857 10.4861C43.8687 10.8382 44.4438 11.3685 44.85 12.0209C46.4 14.7109 47.79 17.4908 49.12 20.3008C49.83 21.8008 48.62 21.9008 47.6 21.9208C45.2 21.9408 42.8 21.9209 40.4 21.9109Z" fill="black"/>
</svg>
