<svg width="60" height="60" viewBox="0 0 60 60" fill="none" xmlns="http://www.w3.org/2000/svg">
<path d="M52.2569 34.9991C52.2569 37.3091 52.2569 39.6291 52.2569 41.9391C52.1769 46.9991 49.0869 50.1091 44.0969 50.1691C42.2269 50.1691 40.3569 50.1691 38.4869 50.1691C36.7189 50.0464 34.9602 50.5142 33.4869 51.4991C31.3069 52.9691 28.6769 52.6391 26.2869 51.8091C25.5168 51.5352 24.858 51.016 24.4118 50.3313C23.9655 49.6466 23.7565 48.8342 23.8169 48.0191C23.7919 47.1671 24.0275 46.3276 24.492 45.6129C24.9566 44.8982 25.6281 44.3422 26.4169 44.0191C28.5269 43.1591 31.0969 42.8091 32.8569 44.0891C35.1569 45.7391 37.4769 45.6291 39.9369 45.6391C47.4769 45.6391 47.7269 45.4291 47.6769 37.8291C47.6769 34.3591 47.9369 30.8891 47.3969 27.4291C46.2669 20.2791 42.3469 15.2691 35.5769 12.8991C28.8069 10.5291 22.4869 11.9991 17.2269 16.8291C13.2269 20.5191 11.7569 25.4391 11.6469 30.8291C11.6469 32.6991 12.1669 35.3991 9.41691 35.4291C6.41691 35.4291 7.18689 32.6391 7.04689 30.7091C6.34689 20.6091 13.5569 10.7091 23.8669 7.77912C36.9369 3.99912 51.7669 14.4891 52.2169 28.0991C52.2969 30.4091 52.2169 32.7291 52.2169 35.0491L52.2569 34.9991Z" fill="black"/>
<path d="M24.3869 33.429C24.3869 34.229 24.3869 35.019 24.3869 35.819C24.3869 39.459 23.5669 40.749 21.2169 41.059C17.9869 41.479 15.1569 39.869 14.3669 36.939C13.7371 34.5227 13.7371 31.9853 14.3669 29.569C14.8346 28.019 15.8956 26.7164 17.3189 25.9448C18.7423 25.1732 20.4128 24.995 21.9669 25.449C23.7969 26.009 24.2969 27.449 24.3769 29.179C24.4469 30.589 24.3769 32.009 24.3769 33.429H24.3869Z" fill="black"/>
<path d="M34.907 33.029V30.639C34.907 26.989 35.727 25.639 38.017 25.339C39.5644 25.0524 41.1628 25.3709 42.4822 26.2288C43.8015 27.0867 44.7411 28.4184 45.107 29.949C45.5721 32.1278 45.5721 34.3802 45.107 36.559C44.9082 37.3575 44.5503 38.1077 44.0545 38.7645C43.5587 39.4213 42.9354 39.9712 42.2219 40.3811C41.5084 40.7911 40.7195 41.0527 39.9024 41.1503C39.0853 41.2479 38.257 41.1794 37.467 40.949C35.607 40.429 35.077 38.949 34.987 37.279C34.917 35.869 34.987 34.449 34.987 33.029H34.907Z" fill="black"/>
</svg>
