<svg xmlns="http://www.w3.org/2000/svg" viewBox="0 0 211.66 148.4"><defs><style>.cls-1{fill:#fff;}</style></defs><g id="Capa_2" data-name="Capa 2"><g id="Capa_3" data-name="Capa 3"><path class="cls-1" d="M105.85,148.4c-25.46-1.2-50.91-2.3-76.35-3.64C15.86,144,6.55,136,3.7,122.49-.86,101-.2,79.07.5,57.27A233.2,233.2,0,0,1,4,24.56C6.16,12,16,4,28.66,2.91c48.25-4,96.53-3.48,144.82-.91,3.66.19,7.31.58,11,1,12,1.51,21.12,9.31,23.31,21.4a212.59,212.59,0,0,1,3.37,30.71c.75,22.47,1.47,45-3.14,67.22-2.82,13.56-12,21.63-25.7,22.37C156.83,146.13,131.37,147.2,105.85,148.4ZM79,106.45l66.84-34.67L79,36.93Z"/></g></g></svg>