<svg id="Capa_1" data-name="Capa 1" xmlns="http://www.w3.org/2000/svg" viewBox="0 0 154.63 93.78"><defs><style>.cls-1{fill:#95c8d8;stroke:#1a2e4f;stroke-miterlimit:10;stroke-width:2px;opacity:0.8;}.cls-2{fill:#1a2e4f;}</style></defs><rect class="cls-1" x="0.99" y="1.41" width="152.64" height="91.18" rx="8.65"/><path class="cls-2" d="M40.92,46H32.45v8.67H24.56V46H16.08V38.54h8.48V29.82h7.89v8.72h8.47Z"/><path class="cls-2" d="M45.11,31.47V23.73H58.6V59.29H49.93V31.47Z"/><path class="cls-2" d="M65.45,58.38a4.16,4.16,0,0,1-1.39-3.19,4.31,4.31,0,0,1,1.39-3.26A5,5,0,0,1,69,50.62a4.91,4.91,0,0,1,3.53,1.31A4.35,4.35,0,0,1,74,55.19a4.2,4.2,0,0,1-1.39,3.19A5,5,0,0,1,69,59.67,5,5,0,0,1,65.45,58.38Z"/><path class="cls-2" d="M91.48,52.71a3.72,3.72,0,0,0,3.65-2.29q1.08-2.3,1.08-7.45a7.05,7.05,0,0,1-2.93,2.34,10,10,0,0,1-4.14.82,11.68,11.68,0,0,1-5.55-1.29A9.19,9.19,0,0,1,79.77,41a12.83,12.83,0,0,1-1.39-6.21,12.77,12.77,0,0,1,1.48-6.29,10.37,10.37,0,0,1,4.24-4.14,13.73,13.73,0,0,1,6.5-1.46q7.22,0,10.09,4.48t2.87,13.2A40,40,0,0,1,102.42,51a11.77,11.77,0,0,1-3.85,6.26,11.55,11.55,0,0,1-7.38,2.14A12.77,12.77,0,0,1,84.88,58a10.28,10.28,0,0,1-4-3.85,11.85,11.85,0,0,1-1.59-5.26H87Q87.73,52.72,91.48,52.71Zm2.83-14.39a4.64,4.64,0,0,0,1.21-3.39,4.87,4.87,0,0,0-1.26-3.6,4.59,4.59,0,0,0-3.41-1.27,4.49,4.49,0,0,0-3.39,1.29,4.87,4.87,0,0,0-1.24,3.53,4.67,4.67,0,0,0,1.24,3.39A4.74,4.74,0,0,0,91,39.56,4.37,4.37,0,0,0,94.31,38.32Z"/><path class="cls-2" d="M111.23,27.82Q114.47,23,121.68,23t10.45,4.82q3.23,4.83,3.23,13.2t-3.23,13.3q-3.24,4.82-10.45,4.82t-10.45-4.82Q108,49.49,108,41T111.23,27.82Zm14.88,5.63q-1.06-2.66-4.43-2.66t-4.43,2.66A20.83,20.83,0,0,0,116.17,41a31.76,31.76,0,0,0,.39,5.48A7,7,0,0,0,118.15,50a5.32,5.32,0,0,0,7.06,0,7.12,7.12,0,0,0,1.58-3.51,31.76,31.76,0,0,0,.39-5.48A21.09,21.09,0,0,0,126.11,33.45Z"/><path class="cls-2" d="M32.37,69.6v8.06H30.75V72.42l-2.16,5.24H27.37L25.2,72.42v5.24H23.59V69.6h1.83l2.56,6,2.56-6Z"/><path class="cls-2" d="M34.07,70.23a1,1,0,0,1,0-1.35,1,1,0,0,1,.71-.27,1,1,0,0,1,.71.27,1,1,0,0,1,0,1.35,1,1,0,0,1-.71.27A1,1,0,0,1,34.07,70.23Zm1.5,1v6.4H34v-6.4Z"/><path class="cls-2" d="M38.78,69.12v8.54H37.17V69.12Z"/><path class="cls-2" d="M42,69.12v8.54H40.38V69.12Z"/><path class="cls-2" d="M44.76,77.35a2.94,2.94,0,0,1-1.16-1.16,3.49,3.49,0,0,1-.42-1.73,3.39,3.39,0,0,1,.43-1.73,3,3,0,0,1,1.18-1.16,3.63,3.63,0,0,1,3.35,0,3,3,0,0,1,1.18,1.16,3.4,3.4,0,0,1,.44,1.73,3.31,3.31,0,0,1-.45,1.73,3,3,0,0,1-1.2,1.16,3.52,3.52,0,0,1-1.69.41A3.4,3.4,0,0,1,44.76,77.35Zm2.49-1.21a1.57,1.57,0,0,0,.61-.64,2.1,2.1,0,0,0,.23-1,1.9,1.9,0,0,0-.47-1.4,1.64,1.64,0,0,0-2.34,0,1.94,1.94,0,0,0-.46,1.4,2,2,0,0,0,.45,1.4,1.51,1.51,0,0,0,1.15.49A1.73,1.73,0,0,0,47.25,76.14Z"/><path class="cls-2" d="M56.33,71.89a2.76,2.76,0,0,1,.71,2v3.75H55.42V74.12A1.7,1.7,0,0,0,55,73a1.36,1.36,0,0,0-1-.41A1.38,1.38,0,0,0,53,73a1.65,1.65,0,0,0-.39,1.17v3.54H50.94v-6.4h1.62v.8a2.28,2.28,0,0,1,.82-.65,2.57,2.57,0,0,1,1.11-.24A2.46,2.46,0,0,1,56.33,71.89Z"/><path class="cls-2" d="M64.47,74.94H59.8A1.52,1.52,0,0,0,60.28,76a1.48,1.48,0,0,0,1,.39,1.32,1.32,0,0,0,1.28-.77h1.74a2.94,2.94,0,0,1-1.06,1.52,3.12,3.12,0,0,1-1.93.59,3.36,3.36,0,0,1-1.65-.41,2.83,2.83,0,0,1-1.14-1.16,3.49,3.49,0,0,1-.41-1.73,3.6,3.6,0,0,1,.4-1.74,2.87,2.87,0,0,1,1.13-1.16,3.66,3.66,0,0,1,3.31,0,2.78,2.78,0,0,1,1.12,1.11,3.48,3.48,0,0,1,.39,1.66A3.87,3.87,0,0,1,64.47,74.94Zm-1.63-1.08a1.29,1.29,0,0,0-.45-1,1.58,1.58,0,0,0-1.07-.37,1.47,1.47,0,0,0-1,.36,1.6,1.6,0,0,0-.5,1Z"/><path class="cls-2" d="M66.73,77.48a2.57,2.57,0,0,1-1-.77,1.92,1.92,0,0,1-.39-1.07H67a.87.87,0,0,0,.37.61,1.26,1.26,0,0,0,.79.24,1.28,1.28,0,0,0,.72-.18.59.59,0,0,0,.26-.48.51.51,0,0,0-.32-.47,7.16,7.16,0,0,0-1-.34,8.05,8.05,0,0,1-1.17-.35,2,2,0,0,1-.79-.57,1.55,1.55,0,0,1-.33-1,1.66,1.66,0,0,1,.31-1,2,2,0,0,1,.88-.7A3.27,3.27,0,0,1,68,71.16a2.78,2.78,0,0,1,1.83.57,2.13,2.13,0,0,1,.75,1.54H69.05a.86.86,0,0,0-.32-.61,1.45,1.45,0,0,0-1.43-.06.53.53,0,0,0,.09.94,4.7,4.7,0,0,0,1,.34,9.81,9.81,0,0,1,1.14.36,2,2,0,0,1,.78.57,1.53,1.53,0,0,1,.34,1,1.7,1.7,0,0,1-.3,1,2,2,0,0,1-.88.69,3.22,3.22,0,0,1-1.33.25A3.35,3.35,0,0,1,66.73,77.48Z"/><path class="cls-2" d="M79.77,70.1a3.5,3.5,0,0,1,1.49,1.41,4.53,4.53,0,0,1,0,4.25,3.54,3.54,0,0,1-1.49,1.4,4.79,4.79,0,0,1-2.23.5H74.73V69.6h2.81A4.79,4.79,0,0,1,79.77,70.1Zm-.32,5.49a2.64,2.64,0,0,0,.69-2,2.72,2.72,0,0,0-.69-2,2.66,2.66,0,0,0-2-.71H76.34v5.32h1.14A2.69,2.69,0,0,0,79.45,75.59Z"/><path class="cls-2" d="M88.9,74.94H84.22A1.57,1.57,0,0,0,84.71,76a1.48,1.48,0,0,0,1.05.39A1.33,1.33,0,0,0,87,75.65h1.74a2.94,2.94,0,0,1-1.06,1.52,3.14,3.14,0,0,1-1.93.59,3.34,3.34,0,0,1-1.65-.41A2.92,2.92,0,0,1,83,76.19a3.88,3.88,0,0,1,0-3.47,2.81,2.81,0,0,1,1.13-1.16,3.64,3.64,0,0,1,3.3,0,2.72,2.72,0,0,1,1.12,1.11,3.37,3.37,0,0,1,.4,1.66A3.87,3.87,0,0,1,88.9,74.94Zm-1.63-1.08a1.29,1.29,0,0,0-.45-1,1.59,1.59,0,0,0-1.08-.37,1.46,1.46,0,0,0-1,.36,1.61,1.61,0,0,0-.51,1Z"/><path class="cls-2" d="M99.55,69.6v8.06H97.93V74.23H94.48v3.43H92.86V69.6h1.62v3.31h3.45V69.6Z"/><path class="cls-2" d="M102.31,77.35a3,3,0,0,1-1.16-1.16,3.49,3.49,0,0,1-.42-1.73,3.4,3.4,0,0,1,.44-1.73,2.93,2.93,0,0,1,1.18-1.16,3.63,3.63,0,0,1,3.35,0,3,3,0,0,1,1.18,1.16,3.66,3.66,0,0,1,0,3.46,3.11,3.11,0,0,1-1.2,1.16,3.55,3.55,0,0,1-1.69.41A3.44,3.44,0,0,1,102.31,77.35Zm2.49-1.21a1.59,1.59,0,0,0,.62-.64,2.22,2.22,0,0,0,.23-1,1.9,1.9,0,0,0-.48-1.4,1.56,1.56,0,0,0-1.17-.49,1.53,1.53,0,0,0-1.16.49,2.34,2.34,0,0,0,0,2.8,1.48,1.48,0,0,0,1.15.49A1.7,1.7,0,0,0,104.8,76.14Z"/><path class="cls-2" d="M112.26,71.44a2.26,2.26,0,0,1,.85.73v-.91h1.63V77.7a3.45,3.45,0,0,1-.36,1.59,2.65,2.65,0,0,1-1.07,1.11,3.46,3.46,0,0,1-1.73.41,3.7,3.7,0,0,1-2.23-.64,2.36,2.36,0,0,1-1-1.73H110a1.26,1.26,0,0,0,.55.7,1.93,1.93,0,0,0,1,.26,1.61,1.61,0,0,0,1.15-.42,1.71,1.71,0,0,0,.43-1.28v-1a2.35,2.35,0,0,1-.86.75,2.54,2.54,0,0,1-1.25.3,2.68,2.68,0,0,1-1.47-.42,2.81,2.81,0,0,1-1.06-1.17,3.71,3.71,0,0,1-.39-1.73,3.66,3.66,0,0,1,.39-1.72,2.89,2.89,0,0,1,1-1.16,2.79,2.79,0,0,1,1.48-.4A2.66,2.66,0,0,1,112.26,71.44Zm.62,2a1.62,1.62,0,0,0-.62-.65,1.65,1.65,0,0,0-.84-.22,1.63,1.63,0,0,0-1.45.86,2,2,0,0,0-.24,1,2.07,2.07,0,0,0,.24,1,1.8,1.8,0,0,0,.62.66,1.63,1.63,0,0,0,1.67,0,1.59,1.59,0,0,0,.62-.64,2.33,2.33,0,0,0,0-2Z"/><path class="cls-2" d="M116.29,72.72a2.89,2.89,0,0,1,1-1.16,2.82,2.82,0,0,1,1.49-.4,2.65,2.65,0,0,1,1.25.29,2.55,2.55,0,0,1,.86.72v-.91h1.63v6.4h-1.63v-.94a2.4,2.4,0,0,1-.86.74,2.62,2.62,0,0,1-1.27.3,2.73,2.73,0,0,1-1.47-.42,2.85,2.85,0,0,1-1-1.17,3.83,3.83,0,0,1-.38-1.73A3.79,3.79,0,0,1,116.29,72.72Zm4.42.73a1.65,1.65,0,0,0-1.47-.87,1.59,1.59,0,0,0-.83.22,1.66,1.66,0,0,0-.62.64,2.08,2.08,0,0,0-.23,1,2.18,2.18,0,0,0,.23,1,1.74,1.74,0,0,0,.63.66,1.59,1.59,0,0,0,.82.23,1.66,1.66,0,0,0,.84-.23,1.62,1.62,0,0,0,.63-.64,2.33,2.33,0,0,0,0-2Z"/><path class="cls-2" d="M126.57,71.46a2.31,2.31,0,0,1,1.15-.29v1.7h-.42a1.34,1.34,0,0,0-1.54,1.6v3.19h-1.61v-6.4h1.61v1A2.3,2.3,0,0,1,126.57,71.46Z"/><path class="cls-2" d="M134.7,74.94H130a1.61,1.61,0,0,0,.48,1.09,1.52,1.52,0,0,0,1.05.39,1.34,1.34,0,0,0,1.29-.77h1.74a3,3,0,0,1-1.06,1.52,3.16,3.16,0,0,1-1.93.59,3.38,3.38,0,0,1-1.66-.41,2.83,2.83,0,0,1-1.14-1.16,3.6,3.6,0,0,1-.41-1.73,3.72,3.72,0,0,1,.4-1.74,2.83,2.83,0,0,1,1.14-1.16,3.64,3.64,0,0,1,3.3,0,2.72,2.72,0,0,1,1.12,1.11,3.37,3.37,0,0,1,.4,1.66A3.8,3.8,0,0,1,134.7,74.94Zm-1.62-1.08a1.29,1.29,0,0,0-.45-1,1.61,1.61,0,0,0-1.08-.37,1.49,1.49,0,0,0-1,.36,1.6,1.6,0,0,0-.5,1Z"/><path class="cls-2" d="M137,77.48a2.53,2.53,0,0,1-1-.77,1.93,1.93,0,0,1-.4-1.07h1.63a.89.89,0,0,0,.36.61,1.26,1.26,0,0,0,.79.24,1.24,1.24,0,0,0,.72-.18.59.59,0,0,0,.26-.48.5.5,0,0,0-.32-.47,6.73,6.73,0,0,0-1-.34,8.9,8.9,0,0,1-1.17-.35,2.07,2.07,0,0,1-.78-.57,1.5,1.5,0,0,1-.33-1,1.6,1.6,0,0,1,.31-1,2,2,0,0,1,.87-.7,3.29,3.29,0,0,1,1.35-.25,2.74,2.74,0,0,1,1.82.57,2.13,2.13,0,0,1,.75,1.54h-1.55a.89.89,0,0,0-.31-.61,1.18,1.18,0,0,0-.76-.22,1.14,1.14,0,0,0-.67.16.52.52,0,0,0-.24.45.53.53,0,0,0,.32.49,4.83,4.83,0,0,0,1,.34,9.81,9.81,0,0,1,1.14.36,2,2,0,0,1,.78.57,1.58,1.58,0,0,1,.34,1,1.64,1.64,0,0,1-.31,1,1.87,1.87,0,0,1-.88.69,3.22,3.22,0,0,1-1.33.25A3.38,3.38,0,0,1,137,77.48Z"/></svg>