<svg id="Capa_1" data-name="Capa 1" xmlns="http://www.w3.org/2000/svg" viewBox="0 0 154.63 93.78"><defs><style>.cls-1{fill:#95c8d8;stroke:#1a2e4f;stroke-miterlimit:10;stroke-width:2px;opacity:0.8;}.cls-2{fill:#1a2e4f;}</style></defs><rect class="cls-1" x="0.96" y="1.24" width="152.64" height="91.18" rx="8.65"/><path class="cls-2" d="M13.78,77.29l-2.54-3.11v3.11H9.84v-7h1.4v3.13l2.54-3.13h1.69l-2.88,3.46,3,3.52Z"/><path class="cls-2" d="M16.57,70.86a.78.78,0,0,1-.25-.59.74.74,0,0,1,.25-.58.82.82,0,0,1,.61-.24.86.86,0,0,1,.62.24.77.77,0,0,1,.24.58.81.81,0,0,1-.24.59.9.9,0,0,1-.62.23A.85.85,0,0,1,16.57,70.86Zm1.3.89v5.54h-1.4V71.75Z"/><path class="cls-2" d="M20.65,69.89v7.4h-1.4v-7.4Z"/><path class="cls-2" d="M23.05,77a2.56,2.56,0,0,1-1-1,3.19,3.19,0,0,1,0-3,2.58,2.58,0,0,1,1-1A3.1,3.1,0,0,1,26,72a2.61,2.61,0,0,1,1,1,3.19,3.19,0,0,1,0,3,2.8,2.8,0,0,1-1,1,3.13,3.13,0,0,1-1.47.35A3,3,0,0,1,23.05,77Zm2.16-1a1.37,1.37,0,0,0,.53-.56,1.93,1.93,0,0,0,.2-.9,1.67,1.67,0,0,0-.41-1.21,1.36,1.36,0,0,0-1-.43,1.3,1.3,0,0,0-1,.43,1.67,1.67,0,0,0-.41,1.21,1.71,1.71,0,0,0,.4,1.22,1.29,1.29,0,0,0,1,.42A1.54,1.54,0,0,0,25.21,76Zm.47-5.74-2.3,1.05v-1l2.3-1.19Z"/><path class="cls-2" d="M36.94,72.3A2.36,2.36,0,0,1,37.56,74v3.25h-1.4V74.23a1.38,1.38,0,0,0-.33-1,1.33,1.33,0,0,0-1.8,0,1.34,1.34,0,0,0-.34,1v3.06h-1.4V74.23a1.38,1.38,0,0,0-.33-1,1.35,1.35,0,0,0-1.81,0,1.34,1.34,0,0,0-.34,1v3.06h-1.4V71.75h1.4v.67a1.83,1.83,0,0,1,.7-.55,2.18,2.18,0,0,1,.93-.2A2.34,2.34,0,0,1,32.6,72a1.91,1.91,0,0,1,.79.78,2,2,0,0,1,.79-.77,2.39,2.39,0,0,1,2.76.34Z"/><path class="cls-2" d="M44,74.94H40a1.36,1.36,0,0,0,.42.94,1.29,1.29,0,0,0,.91.34,1.14,1.14,0,0,0,1.11-.67H43.9A2.6,2.6,0,0,1,43,76.87a2.7,2.7,0,0,1-1.67.51A2.94,2.94,0,0,1,39.88,77a2.47,2.47,0,0,1-1-1,3,3,0,0,1-.36-1.5A3.18,3.18,0,0,1,38.88,73a2.42,2.42,0,0,1,1-1,3,3,0,0,1,1.45-.35,2.9,2.9,0,0,1,1.42.34,2.45,2.45,0,0,1,1,1A2.88,2.88,0,0,1,44,74.4,3,3,0,0,1,44,74.94ZM42.59,74a1.11,1.11,0,0,0-.39-.86,1.36,1.36,0,0,0-.93-.33,1.24,1.24,0,0,0-.87.32A1.35,1.35,0,0,0,40,74Z"/><path class="cls-2" d="M46.69,72.9v2.68a.55.55,0,0,0,.14.41.67.67,0,0,0,.45.12h.65v1.18h-.88a1.54,1.54,0,0,1-1.77-1.72V72.9h-.66V71.75h.66V70.38h1.41v1.37h1.24V72.9Z"/><path class="cls-2" d="M51.05,71.92a1.92,1.92,0,0,1,1-.25v1.47h-.37a1.38,1.38,0,0,0-1,.31,1.41,1.41,0,0,0-.34,1.08v2.76h-1.4V71.75h1.4v.86A2,2,0,0,1,51.05,71.92Z"/><path class="cls-2" d="M54,77a2.56,2.56,0,0,1-1-1,3.19,3.19,0,0,1,0-3,2.58,2.58,0,0,1,1-1,3.1,3.1,0,0,1,2.9,0,2.61,2.61,0,0,1,1,1,3.19,3.19,0,0,1,0,3,2.8,2.8,0,0,1-1,1,3.13,3.13,0,0,1-1.47.35A3,3,0,0,1,54,77Zm2.16-1a1.37,1.37,0,0,0,.53-.56,1.93,1.93,0,0,0,.2-.9,1.67,1.67,0,0,0-.41-1.21,1.36,1.36,0,0,0-1-.43,1.3,1.3,0,0,0-1,.43,1.67,1.67,0,0,0-.41,1.21,1.71,1.71,0,0,0,.4,1.22,1.29,1.29,0,0,0,1,.42A1.54,1.54,0,0,0,56.16,76Z"/><path class="cls-2" d="M60.26,77.14a2.21,2.21,0,0,1-.85-.67,1.69,1.69,0,0,1-.35-.93h1.41a.77.77,0,0,0,.32.53,1.08,1.08,0,0,0,.68.21,1,1,0,0,0,.63-.16.48.48,0,0,0,.22-.41.43.43,0,0,0-.27-.4,5.75,5.75,0,0,0-.88-.3,6.89,6.89,0,0,1-1-.31,1.75,1.75,0,0,1-.68-.49,1.32,1.32,0,0,1-.29-.89,1.4,1.4,0,0,1,.27-.84,1.79,1.79,0,0,1,.76-.6,2.76,2.76,0,0,1,1.16-.22,2.37,2.37,0,0,1,1.58.5,1.84,1.84,0,0,1,.65,1.33H62.27A.72.72,0,0,0,62,73a1.06,1.06,0,0,0-.66-.2,1,1,0,0,0-.58.14.44.44,0,0,0-.21.39.46.46,0,0,0,.28.43,5.1,5.1,0,0,0,.87.29,6.93,6.93,0,0,1,1,.31,1.74,1.74,0,0,1,.68.5,1.35,1.35,0,0,1,.29.88,1.5,1.5,0,0,1-.26.86,1.85,1.85,0,0,1-.76.6,3.26,3.26,0,0,1-2.38,0Z"/><path class="cls-2" d="M71.57,70.74A3.18,3.18,0,0,1,72.86,72a4,4,0,0,1,0,3.68,3.2,3.2,0,0,1-1.29,1.21,4.17,4.17,0,0,1-1.94.43H67.19v-7h2.44A4.17,4.17,0,0,1,71.57,70.74Zm-.29,4.76a2.28,2.28,0,0,0,.6-1.69,2.32,2.32,0,0,0-.6-1.7,2.27,2.27,0,0,0-1.7-.62h-1V76.1h1A2.3,2.3,0,0,0,71.28,75.5Z"/><path class="cls-2" d="M79.47,74.94h-4a1.36,1.36,0,0,0,.42.94,1.29,1.29,0,0,0,.91.34,1.14,1.14,0,0,0,1.11-.67h1.51a2.6,2.6,0,0,1-.92,1.32,2.7,2.7,0,0,1-1.67.51A2.94,2.94,0,0,1,75.35,77a2.47,2.47,0,0,1-1-1,3,3,0,0,1-.36-1.5A3.18,3.18,0,0,1,74.35,73a2.42,2.42,0,0,1,1-1,3,3,0,0,1,1.45-.35A2.9,2.9,0,0,1,78.2,72a2.45,2.45,0,0,1,1,1,2.88,2.88,0,0,1,.34,1.43A3,3,0,0,1,79.47,74.94ZM78.06,74a1.11,1.11,0,0,0-.39-.86,1.36,1.36,0,0,0-.93-.33,1.24,1.24,0,0,0-.87.32,1.35,1.35,0,0,0-.44.87Z"/><path class="cls-2" d="M87.22,70.31v1.13H84.31v1.79h2.23v1.11H84.31v3h-1.4v-7Z"/><path class="cls-2" d="M88.31,70.86a.78.78,0,0,1-.25-.59.74.74,0,0,1,.25-.58.82.82,0,0,1,.61-.24.86.86,0,0,1,.62.24.77.77,0,0,1,.24.58.81.81,0,0,1-.24.59.9.9,0,0,1-.62.23A.85.85,0,0,1,88.31,70.86Zm1.3.89v5.54h-1.4V71.75Z"/><path class="cls-2" d="M93.13,71.91a2.28,2.28,0,0,1,1.09-.25,2.5,2.5,0,0,1,1.29.35,2.53,2.53,0,0,1,.91,1,3.21,3.21,0,0,1,.33,1.49A3.32,3.32,0,0,1,96.42,76a2.63,2.63,0,0,1-.91,1,2.41,2.41,0,0,1-1.29.36,2.37,2.37,0,0,1-1.09-.24,2.3,2.3,0,0,1-.74-.64v.79H91v-7.4h1.4v2.67A2,2,0,0,1,93.13,71.91Zm2,1.73a1.44,1.44,0,0,0-2.53,0,2,2,0,0,0,0,1.74,1.49,1.49,0,0,0,.54.57,1.44,1.44,0,0,0,.72.19,1.46,1.46,0,0,0,.73-.2,1.49,1.49,0,0,0,.54-.57,1.87,1.87,0,0,0,.2-.88A1.79,1.79,0,0,0,95.12,73.64Z"/><path class="cls-2" d="M99.88,71.92a1.92,1.92,0,0,1,1-.25v1.47h-.37a1.38,1.38,0,0,0-1,.31,1.41,1.41,0,0,0-.34,1.08v2.76h-1.4V71.75h1.4v.86A2,2,0,0,1,99.88,71.92Z"/><path class="cls-2" d="M101.79,73a2.39,2.39,0,0,1,.91-1,2.44,2.44,0,0,1,1.28-.35,2.25,2.25,0,0,1,1.09.25,2.29,2.29,0,0,1,.74.63v-.79h1.41v5.54h-1.41v-.81a2.13,2.13,0,0,1-.74.65A2.48,2.48,0,0,1,102.7,77a2.48,2.48,0,0,1-.91-1,3.2,3.2,0,0,1-.34-1.51A3.12,3.12,0,0,1,101.79,73Zm3.82.64a1.33,1.33,0,0,0-.54-.56,1.46,1.46,0,0,0-.73-.2,1.39,1.39,0,0,0-.72.19,1.37,1.37,0,0,0-.53.56,1.69,1.69,0,0,0-.21.86,1.79,1.79,0,0,0,.21.88,1.35,1.35,0,0,0,.54.57,1.39,1.39,0,0,0,.71.2,1.45,1.45,0,0,0,.73-.19,1.39,1.39,0,0,0,.54-.56,1.87,1.87,0,0,0,.2-.88A1.8,1.8,0,0,0,105.61,73.65Z"/><path class="cls-2" d="M112.41,76.9a3.45,3.45,0,0,1-1.3-1.27,3.59,3.59,0,0,1-.48-1.85,3.52,3.52,0,0,1,.48-1.83,3.4,3.4,0,0,1,1.3-1.28,3.77,3.77,0,0,1,3.61,0A3.44,3.44,0,0,1,117.31,72a3.61,3.61,0,0,1,.47,1.83,3.69,3.69,0,0,1-.47,1.85A3.45,3.45,0,0,1,116,76.9a3.75,3.75,0,0,1-3.6,0Zm2.91-1.07a2,2,0,0,0,.75-.82,2.65,2.65,0,0,0,.27-1.23,2.61,2.61,0,0,0-.27-1.22,2,2,0,0,0-.75-.81,2.34,2.34,0,0,0-2.22,0,1.92,1.92,0,0,0-.76.81,2.61,2.61,0,0,0-.27,1.22,2.65,2.65,0,0,0,.27,1.23,2,2,0,0,0,.76.82,2.34,2.34,0,0,0,2.22,0Zm0-7-2.3,1v-1l2.3-1.19Z"/><path class="cls-2" d="M121,71.92a2.21,2.21,0,0,1,1.08-.26,2.5,2.5,0,0,1,1.29.35,2.53,2.53,0,0,1,.91,1,3.21,3.21,0,0,1,.33,1.49,3.32,3.32,0,0,1-.33,1.51,2.63,2.63,0,0,1-.91,1,2.41,2.41,0,0,1-1.29.36,2.24,2.24,0,0,1-1.08-.25,2.45,2.45,0,0,1-.75-.63v3.43h-1.4V71.75h1.4v.8A2.14,2.14,0,0,1,121,71.92Zm2,1.72a1.41,1.41,0,0,0-1.27-.75,1.39,1.39,0,0,0-.71.2,1.41,1.41,0,0,0-.55.56,2,2,0,0,0,0,1.74A1.44,1.44,0,0,0,121,76a1.38,1.38,0,0,0,.71.19,1.46,1.46,0,0,0,.73-.2,1.49,1.49,0,0,0,.54-.57,1.87,1.87,0,0,0,.2-.88A1.79,1.79,0,0,0,123,73.64Z"/><path class="cls-2" d="M127.23,72.9v2.68a.55.55,0,0,0,.14.41.67.67,0,0,0,.45.12h.65v1.18h-.88a1.54,1.54,0,0,1-1.77-1.72V72.9h-.66V71.75h.66V70.38h1.41v1.37h1.24V72.9Z"/><path class="cls-2" d="M129.58,70.86a.78.78,0,0,1-.25-.59.74.74,0,0,1,.25-.58.9.9,0,0,1,1.22,0,.74.74,0,0,1,.25.58.78.78,0,0,1-.25.59.92.92,0,0,1-1.22,0Zm1.3.89v5.54h-1.4V71.75Z"/><path class="cls-2" d="M132.25,73a2.46,2.46,0,0,1,1-1,2.78,2.78,0,0,1,1.42-.36,2.67,2.67,0,0,1,1.7.52,2.47,2.47,0,0,1,.91,1.44h-1.51a1.07,1.07,0,0,0-.41-.56,1.14,1.14,0,0,0-.7-.21,1.15,1.15,0,0,0-.95.44,2.34,2.34,0,0,0,0,2.46,1.15,1.15,0,0,0,.95.43,1.05,1.05,0,0,0,1.11-.76h1.51a2.54,2.54,0,0,1-.91,1.43,2.7,2.7,0,0,1-1.7.53,2.87,2.87,0,0,1-1.42-.35,2.52,2.52,0,0,1-1-1,3.18,3.18,0,0,1-.35-1.51A3.13,3.13,0,0,1,132.25,73Z"/><path class="cls-2" d="M138.26,73a2.39,2.39,0,0,1,.91-1,2.44,2.44,0,0,1,1.28-.35,2.28,2.28,0,0,1,1.09.25,2.4,2.4,0,0,1,.74.63v-.79h1.41v5.54h-1.41v-.81a2.13,2.13,0,0,1-.74.65,2.48,2.48,0,0,1-2.37-.11,2.48,2.48,0,0,1-.91-1,3.2,3.2,0,0,1-.34-1.51A3.12,3.12,0,0,1,138.26,73Zm3.82.64a1.33,1.33,0,0,0-.54-.56,1.46,1.46,0,0,0-.73-.2,1.39,1.39,0,0,0-.72.19,1.46,1.46,0,0,0-.54.56,1.79,1.79,0,0,0-.2.86,1.9,1.9,0,0,0,.2.88,1.49,1.49,0,0,0,.54.57,1.45,1.45,0,0,0,1.45,0,1.39,1.39,0,0,0,.54-.56,1.87,1.87,0,0,0,.2-.88A1.8,1.8,0,0,0,142.08,73.65Z"/><path class="cls-2" d="M32.64,45.2h-8v9.07H17.21V45.2h-8V37.4h8V28.28h7.44V37.4h8Z"/><path class="cls-2" d="M37.59,52.49v-7l14.51-23h8.76V45h3.77v7.54H60.86v6.62H53V52.49ZM53.57,32,45.86,45h7.71Z"/><path class="cls-2" d="M105.75,23.34V59.11H97.91V37.66L90.7,59.11H84.36l-7.25-21.5v21.5H69.26V23.34h9.28l9,24.77,9-24.77Z"/><path class="cls-2" d="M119.25,23.34V59.11H111.4V23.34Z"/><path class="cls-2" d="M132.79,52.39h10.28v6.72H124.94V23.34h7.85Z"/></svg>