<svg id="Capa_1" data-name="Capa 1" xmlns="http://www.w3.org/2000/svg" viewBox="0 0 154.63 93.78"><defs><style>.cls-1{fill:#95c8d8;stroke:#1a2e4f;stroke-miterlimit:10;stroke-width:2px;opacity:0.8;}.cls-2{fill:#1a2e4f;}</style></defs><rect class="cls-1" x="0.98" y="1.24" width="152.64" height="91.18" rx="8.65"/><path class="cls-2" d="M45.91,44.74H36.57v9.55H27.88V44.74H18.54V36.53h9.34V26.92h8.69v9.61h9.34Z"/><path class="cls-2" d="M50.52,28.75V20.22H65.38V59.39H55.83V28.75Z"/><path class="cls-2" d="M75.23,24.72q3.57-5.31,11.51-5.31t11.51,5.31q3.57,5.33,3.57,14.55T98.25,53.92q-3.57,5.31-11.51,5.31T75.23,53.92q-3.57-5.33-3.57-14.65T75.23,24.72Zm16.39,6.2Q90.45,28,86.74,28t-4.88,2.92a23.09,23.09,0,0,0-1.18,8.35,35.76,35.76,0,0,0,.42,6,7.79,7.79,0,0,0,1.75,3.87,5.88,5.88,0,0,0,7.78,0,7.69,7.69,0,0,0,1.74-3.87,34.61,34.61,0,0,0,.43-6A23.09,23.09,0,0,0,91.62,30.92Z"/><path class="cls-2" d="M110.22,24.72q3.56-5.31,11.51-5.31t11.51,5.31Q136.8,30,136.8,39.27t-3.56,14.65q-3.57,5.31-11.51,5.31t-11.51-5.31q-3.57-5.33-3.57-14.65T110.22,24.72Zm16.39,6.2Q125.42,28,121.73,28t-4.89,2.92a23.31,23.31,0,0,0-1.18,8.35,35.63,35.63,0,0,0,.43,6,7.79,7.79,0,0,0,1.75,3.87,5.88,5.88,0,0,0,7.78,0,7.87,7.87,0,0,0,1.74-3.87,34.61,34.61,0,0,0,.43-6A23.31,23.31,0,0,0,126.61,30.92Z"/><path class="cls-2" d="M26.72,70.85a3.73,3.73,0,0,1,1.46-1.46,4.19,4.19,0,0,1,2.09-.53,4.1,4.1,0,0,1,2.36.69,3.6,3.6,0,0,1,1.42,1.92H32.19a1.9,1.9,0,0,0-.78-.87,2.29,2.29,0,0,0-1.16-.29,2.38,2.38,0,0,0-1.25.33,2.25,2.25,0,0,0-.85.93,3.34,3.34,0,0,0,0,2.81,2.22,2.22,0,0,0,.85.94,2.38,2.38,0,0,0,1.25.33,2.2,2.2,0,0,0,1.16-.3,1.9,1.9,0,0,0,.78-.87h1.86a3.63,3.63,0,0,1-1.41,1.92,4.13,4.13,0,0,1-2.37.69,4.19,4.19,0,0,1-2.09-.53,3.73,3.73,0,0,1-1.46-1.46A4.15,4.15,0,0,1,26.18,73,4.22,4.22,0,0,1,26.72,70.85Z"/><path class="cls-2" d="M35.54,69.59a.88.88,0,0,1-.28-.67.9.9,0,0,1,.28-.68,1,1,0,0,1,.71-.27,1,1,0,0,1,.71.27.91.91,0,0,1,.29.68.88.88,0,0,1-.29.67,1,1,0,0,1-.71.27A1,1,0,0,1,35.54,69.59Zm1.51,1V77H35.43V70.63Z"/><path class="cls-2" d="M44.68,70.63V77H43.05v-.81a2.07,2.07,0,0,1-.81.65,2.52,2.52,0,0,1-1.09.24,2.73,2.73,0,0,1-1.33-.32,2.21,2.21,0,0,1-.91-.93,3.07,3.07,0,0,1-.33-1.47V70.63H40.2v3.52a1.7,1.7,0,0,0,.38,1.17,1.36,1.36,0,0,0,1,.41,1.38,1.38,0,0,0,1.05-.41,1.7,1.7,0,0,0,.38-1.17V70.63Z"/><path class="cls-2" d="M46.24,72.08a2.82,2.82,0,0,1,2.54-1.56,2.69,2.69,0,0,1,1.19.27,2.32,2.32,0,0,1,.9.72v-3h1.64V77H50.87v-1a2.14,2.14,0,0,1-.84.76,2.55,2.55,0,0,1-1.26.29,2.76,2.76,0,0,1-1.47-.41,2.93,2.93,0,0,1-1.06-1.17,3.78,3.78,0,0,1-.39-1.74A3.66,3.66,0,0,1,46.24,72.08Zm4.41.73a1.59,1.59,0,0,0-.62-.64,1.66,1.66,0,0,0-.84-.23,1.59,1.59,0,0,0-.83.22,1.66,1.66,0,0,0-.62.64,2,2,0,0,0-.24,1,2.07,2.07,0,0,0,.24,1,1.72,1.72,0,0,0,.62.66,1.55,1.55,0,0,0,.83.23,1.65,1.65,0,0,0,.84-.22,1.62,1.62,0,0,0,.62-.65,2.25,2.25,0,0,0,0-2Z"/><path class="cls-2" d="M54.06,72.08a2.86,2.86,0,0,1,1-1.15,2.83,2.83,0,0,1,1.49-.41,2.65,2.65,0,0,1,1.25.29,2.57,2.57,0,0,1,.86.73v-.91h1.63V77H58.71v-.94a2.53,2.53,0,0,1-.86.75,2.73,2.73,0,0,1-1.27.29,2.81,2.81,0,0,1-1.47-.41,3,3,0,0,1-1-1.17,3.9,3.9,0,0,1-.38-1.74A3.79,3.79,0,0,1,54.06,72.08Zm4.42.73a1.62,1.62,0,0,0-.63-.64,1.66,1.66,0,0,0-.84-.23,1.61,1.61,0,0,0-.83.22,1.73,1.73,0,0,0-.62.64,2.08,2.08,0,0,0-.23,1,2.18,2.18,0,0,0,.23,1,1.67,1.67,0,0,0,.63.66,1.5,1.5,0,0,0,.82.23,1.65,1.65,0,0,0,1.47-.87,2.33,2.33,0,0,0,0-2Z"/><path class="cls-2" d="M61.89,72.08a2.79,2.79,0,0,1,1-1.15,2.85,2.85,0,0,1,1.49-.41,2.73,2.73,0,0,1,1.19.27,2.32,2.32,0,0,1,.9.72v-3h1.64V77H66.52v-1a2.14,2.14,0,0,1-.84.76,2.55,2.55,0,0,1-1.26.29,2.82,2.82,0,0,1-1.48-.41,2.91,2.91,0,0,1-1-1.17,3.78,3.78,0,0,1-.39-1.74A3.66,3.66,0,0,1,61.89,72.08Zm4.41.73a1.59,1.59,0,0,0-.62-.64,1.66,1.66,0,0,0-.84-.23,1.6,1.6,0,0,0-1.45.86,2,2,0,0,0-.24,1,2.07,2.07,0,0,0,.24,1,1.59,1.59,0,0,0,.62.66,1.53,1.53,0,0,0,.83.23,1.65,1.65,0,0,0,.84-.22,1.62,1.62,0,0,0,.62-.65,2.33,2.33,0,0,0,0-2Z"/><path class="cls-2" d="M75.64,74.31H71a1.57,1.57,0,0,0,.49,1.08,1.48,1.48,0,0,0,1,.39A1.31,1.31,0,0,0,73.78,75h1.74a2.9,2.9,0,0,1-1.06,1.52,3.14,3.14,0,0,1-1.93.59,3.23,3.23,0,0,1-1.65-.41,2.92,2.92,0,0,1-1.15-1.16,3.57,3.57,0,0,1-.41-1.73,3.61,3.61,0,0,1,.41-1.74,2.78,2.78,0,0,1,1.13-1.15,3.6,3.6,0,0,1,3.3,0A2.81,2.81,0,0,1,75.28,72a3.3,3.3,0,0,1,.4,1.65A4.09,4.09,0,0,1,75.64,74.31ZM74,73.22a1.31,1.31,0,0,0-.45-1,1.59,1.59,0,0,0-1.08-.37,1.46,1.46,0,0,0-1,.36,1.64,1.64,0,0,0-.51,1Z"/><path class="cls-2" d="M77.9,76.84a2.41,2.41,0,0,1-1-.77,1.93,1.93,0,0,1-.4-1.07h1.63a.87.87,0,0,0,.36.61,1.28,1.28,0,0,0,.79.24,1.24,1.24,0,0,0,.72-.18.54.54,0,0,0,.26-.47.49.49,0,0,0-.31-.47,5.51,5.51,0,0,0-1-.34A9.34,9.34,0,0,1,77.78,74a1.93,1.93,0,0,1-.79-.57,1.49,1.49,0,0,1-.33-1,1.6,1.6,0,0,1,.31-1,2,2,0,0,1,.88-.69,3.23,3.23,0,0,1,1.34-.26,2.74,2.74,0,0,1,1.82.57,2.08,2.08,0,0,1,.75,1.54H80.22a.85.85,0,0,0-.32-.6,1.19,1.19,0,0,0-.76-.23,1.25,1.25,0,0,0-.67.16.52.52,0,0,0-.24.45.53.53,0,0,0,.32.49,4.74,4.74,0,0,0,1,.35,8.32,8.32,0,0,1,1.14.35,2.19,2.19,0,0,1,.78.57,1.59,1.59,0,0,1,.34,1,1.66,1.66,0,0,1-.31,1,1.94,1.94,0,0,1-.87.68,3.68,3.68,0,0,1-2.74,0Z"/><path class="cls-2" d="M85.86,72.08a2.82,2.82,0,0,1,2.55-1.56,2.76,2.76,0,0,1,1.19.27,2.48,2.48,0,0,1,.9.72v-3h1.64V77H90.5v-1a2.1,2.1,0,0,1-.85.76,2.54,2.54,0,0,1-1.25.29,2.82,2.82,0,0,1-1.48-.41,2.93,2.93,0,0,1-1.06-1.17,3.9,3.9,0,0,1-.38-1.74A3.79,3.79,0,0,1,85.86,72.08Zm4.42.73a1.62,1.62,0,0,0-.63-.64,1.66,1.66,0,0,0-.84-.23,1.59,1.59,0,0,0-.83.22,1.73,1.73,0,0,0-.62.64,2.08,2.08,0,0,0-.23,1,2.18,2.18,0,0,0,.23,1,1.67,1.67,0,0,0,.63.66,1.5,1.5,0,0,0,.82.23,1.65,1.65,0,0,0,1.47-.87,2.33,2.33,0,0,0,0-2Z"/><path class="cls-2" d="M99.61,74.31H94.94a1.6,1.6,0,0,0,.48,1.08,1.52,1.52,0,0,0,1,.39A1.31,1.31,0,0,0,97.75,75H99.5a3,3,0,0,1-1.06,1.52,3.16,3.16,0,0,1-1.93.59,3.27,3.27,0,0,1-1.66-.41,2.83,2.83,0,0,1-1.14-1.16,3.57,3.57,0,0,1-.41-1.73,3.72,3.72,0,0,1,.4-1.74,2.84,2.84,0,0,1,1.13-1.15,3.43,3.43,0,0,1,1.68-.41,3.36,3.36,0,0,1,1.63.39A2.87,2.87,0,0,1,99.26,72a3.41,3.41,0,0,1,.4,1.65A4,4,0,0,1,99.61,74.31ZM98,73.22a1.24,1.24,0,0,0-.45-1,1.57,1.57,0,0,0-1.07-.37,1.49,1.49,0,0,0-1,.36,1.63,1.63,0,0,0-.5,1Z"/><path class="cls-2" d="M102.45,68.48V77h-1.62V68.48Z"/><path class="cls-2" d="M112.36,72.67a2.29,2.29,0,0,1-1,.91,3.51,3.51,0,0,1-1.65.35H108.4V77h-1.61V69h3a3.54,3.54,0,0,1,1.6.33,2.24,2.24,0,0,1,1,.89,2.46,2.46,0,0,1,.33,1.28A2.55,2.55,0,0,1,112.36,72.67Zm-1.68-.35a1.15,1.15,0,0,0,.32-.86c0-.79-.44-1.18-1.31-1.18H108.4v2.34h1.29A1.43,1.43,0,0,0,110.68,72.32Z"/><path class="cls-2" d="M113.78,72.08a2.73,2.73,0,0,1,1-1.15,2.77,2.77,0,0,1,1.48-.41,2.62,2.62,0,0,1,1.25.29,2.57,2.57,0,0,1,.86.73v-.91h1.63V77h-1.63v-.94a2.44,2.44,0,0,1-.86.75,2.72,2.72,0,0,1-1.26.29,2.76,2.76,0,0,1-1.47-.41,2.84,2.84,0,0,1-1-1.17,3.78,3.78,0,0,1-.39-1.74A3.66,3.66,0,0,1,113.78,72.08Zm4.41.73a1.59,1.59,0,0,0-.62-.64,1.72,1.72,0,0,0-.85-.23,1.61,1.61,0,0,0-.83.22,1.64,1.64,0,0,0-.61.64,2,2,0,0,0-.24,1,2.07,2.07,0,0,0,.24,1,1.59,1.59,0,0,0,.62.66,1.52,1.52,0,0,0,.82.23,1.71,1.71,0,0,0,.85-.22,1.62,1.62,0,0,0,.62-.65,2.33,2.33,0,0,0,0-2Z"/><path class="cls-2" d="M123.76,69l-2.65,1.22V69l2.65-1.37Zm-.45,1.67V77H121.7V70.63Z"/><path class="cls-2" d="M126,76.84a2.55,2.55,0,0,1-1-.77,1.92,1.92,0,0,1-.39-1.07h1.62a.88.88,0,0,0,.37.61,1.26,1.26,0,0,0,.79.24,1.24,1.24,0,0,0,.72-.18.56.56,0,0,0,.26-.47.5.5,0,0,0-.32-.47,5.25,5.25,0,0,0-1-.34,9.34,9.34,0,0,1-1.17-.36,2,2,0,0,1-.78-.57,1.49,1.49,0,0,1-.33-1,1.66,1.66,0,0,1,.3-1,2.13,2.13,0,0,1,.88-.69,3.27,3.27,0,0,1,1.34-.26,2.76,2.76,0,0,1,1.83.57,2.15,2.15,0,0,1,.75,1.54h-1.55A.82.82,0,0,0,128,72a1.16,1.16,0,0,0-.75-.23,1.29,1.29,0,0,0-.68.16.53.53,0,0,0-.23.45.51.51,0,0,0,.32.49,4.82,4.82,0,0,0,1,.35,8.09,8.09,0,0,1,1.15.35,2.07,2.07,0,0,1,.77.57,1.6,1.6,0,0,1,.35,1,1.73,1.73,0,0,1-.31,1,2,2,0,0,1-.88.68,3.22,3.22,0,0,1-1.33.25A3.38,3.38,0,0,1,126,76.84Z"/></svg>