<svg width="144" height="24" viewBox="0 0 144 24" fill="none" xmlns="http://www.w3.org/2000/svg">
<path d="M11.1221 1.60979C11.5011 0.914845 12.4989 0.914845 12.8779 1.60979L15.511 6.43791C15.6549 6.70163 15.9096 6.88673 16.2049 6.94203L21.6104 7.95429C22.3884 8.09999 22.6968 9.04901 22.153 9.62421L18.3748 13.6204C18.1685 13.8387 18.0711 14.1382 18.1098 14.4361L18.8175 19.8898C18.9193 20.6748 18.112 21.2613 17.397 20.9219L12.4288 18.5636C12.1575 18.4347 11.8425 18.4347 11.5712 18.5636L6.60304 20.9219C5.88795 21.2613 5.08067 20.6748 5.18253 19.8898L5.8902 14.4361C5.92885 14.1382 5.83154 13.8387 5.62517 13.6204L1.84703 9.62421C1.30321 9.04901 1.61157 8.09999 2.38961 7.95429L7.7951 6.94203C8.09037 6.88673 8.34514 6.70163 8.48897 6.43791L11.1221 1.60979Z" fill="#CD325D"/>
<path d="M41.1221 1.60979C41.5011 0.914845 42.4989 0.914845 42.8779 1.60979L45.511 6.43791C45.6549 6.70163 45.9096 6.88673 46.2049 6.94203L51.6104 7.95429C52.3884 8.09999 52.6968 9.04901 52.153 9.62421L48.3748 13.6204C48.1685 13.8387 48.0711 14.1382 48.1098 14.4361L48.8175 19.8898C48.9193 20.6748 48.112 21.2613 47.397 20.9219L42.4288 18.5636C42.1575 18.4347 41.8425 18.4347 41.5712 18.5636L36.603 20.9219C35.8879 21.2613 35.0807 20.6748 35.1825 19.8898L35.8902 14.4361C35.9289 14.1382 35.8315 13.8387 35.6252 13.6204L31.847 9.62421C31.3032 9.04901 31.6116 8.09999 32.3896 7.95429L37.7951 6.94203C38.0904 6.88673 38.3451 6.70163 38.489 6.43791L41.1221 1.60979Z" fill="#CD325D"/>
<path d="M71.1221 1.60979C71.5011 0.914845 72.4989 0.914845 72.8779 1.60979L75.511 6.43791C75.6549 6.70163 75.9096 6.88673 76.2049 6.94203L81.6104 7.95429C82.3884 8.09999 82.6968 9.04901 82.153 9.62421L78.3748 13.6204C78.1685 13.8387 78.0711 14.1382 78.1098 14.4361L78.8175 19.8898C78.9193 20.6748 78.112 21.2613 77.397 20.9219L72.4288 18.5636C72.1575 18.4347 71.8425 18.4347 71.5712 18.5636L66.603 20.9219C65.8879 21.2613 65.0807 20.6748 65.1825 19.8898L65.8902 14.4361C65.9289 14.1382 65.8315 13.8387 65.6252 13.6204L61.847 9.62421C61.3032 9.04901 61.6116 8.09999 62.3896 7.95429L67.7951 6.94203C68.0904 6.88673 68.3451 6.70163 68.489 6.43791L71.1221 1.60979Z" fill="#CD325D"/>
<path d="M101.122 1.60979C101.501 0.914845 102.499 0.914845 102.878 1.60979L105.511 6.43791C105.655 6.70163 105.91 6.88673 106.205 6.94203L111.61 7.95429C112.388 8.09999 112.697 9.04901 112.153 9.62421L108.375 13.6204C108.168 13.8387 108.071 14.1382 108.11 14.4361L108.817 19.8898C108.919 20.6748 108.112 21.2613 107.397 20.9219L102.429 18.5636C102.157 18.4347 101.843 18.4347 101.571 18.5636L96.603 20.9219C95.8879 21.2613 95.0807 20.6748 95.1825 19.8898L95.8902 14.4361C95.9289 14.1382 95.8315 13.8387 95.6252 13.6204L91.847 9.62421C91.3032 9.04901 91.6116 8.09999 92.3896 7.95429L97.7951 6.94203C98.0904 6.88673 98.3451 6.70163 98.489 6.43791L101.122 1.60979Z" fill="#CD325D"/>
<path d="M131.122 1.60979C131.501 0.914845 132.499 0.914845 132.878 1.60979L135.511 6.43791C135.655 6.70163 135.91 6.88673 136.205 6.94203L141.61 7.95429C142.388 8.09999 142.697 9.04901 142.153 9.62421L138.375 13.6204C138.168 13.8387 138.071 14.1382 138.11 14.4361L138.817 19.8898C138.919 20.6748 138.112 21.2613 137.397 20.9219L132.429 18.5636C132.157 18.4347 131.843 18.4347 131.571 18.5636L126.603 20.9219C125.888 21.2613 125.081 20.6748 125.183 19.8898L125.89 14.4361C125.929 14.1382 125.832 13.8387 125.625 13.6204L121.847 9.62421C121.303 9.04901 121.612 8.09999 122.39 7.95429L127.795 6.94203C128.09 6.88673 128.345 6.70163 128.489 6.43791L131.122 1.60979Z" fill="#CD325D"/>
</svg>
