<svg width="15" height="16" viewBox="0 0 15 16" fill="none" xmlns="http://www.w3.org/2000/svg">
<path d="M10.6896 4.41479H2.38192C1.36232 4.41479 0.535767 5.24135 0.535767 6.26095V11.3379C0.535767 12.3575 1.36232 13.184 2.38192 13.184H10.6896C11.7092 13.184 12.5358 12.3575 12.5358 11.3379V6.26095C12.5358 5.24135 11.7092 4.41479 10.6896 4.41479Z" stroke="#606060" stroke-linecap="round" stroke-linejoin="round"/>
<path d="M3.76648 13.184V4.41479" stroke="#606060" stroke-linecap="round" stroke-linejoin="round"/>
<path d="M9.30505 13.184V4.41479" stroke="#606060" stroke-linecap="round" stroke-linejoin="round"/>
<path d="M4.22803 4.41487C4.22803 3.80283 4.47116 3.21586 4.90393 2.78309C5.33671 2.35031 5.92368 2.10718 6.53572 2.10718C7.14776 2.10718 7.73473 2.35031 8.1675 2.78309C8.60028 3.21586 8.84341 3.80283 8.84341 4.41487" stroke="#606060" stroke-linecap="round" stroke-linejoin="round"/>
</svg>
