<svg width="46" height="50" viewBox="0 0 46 50" fill="none" xmlns="http://www.w3.org/2000/svg">
<path d="M42.618 40.4909C42.2727 43.0944 40.5442 45.3457 38.1251 46.3466C36.9397 46.8458 35.6554 46.9975 34.3711 46.8458C33.1374 46.6965 31.9014 46.2953 30.6193 45.5464C28.8424 44.5432 27.0632 42.9941 24.9894 40.6915C28.2486 36.6368 30.2234 32.9344 30.9646 29.6309C31.3098 28.0795 31.3605 26.6774 31.2109 25.3756C31.0129 24.1251 30.5687 22.9727 29.8782 21.9718C28.3476 19.7205 25.7789 18.4187 22.9156 18.4187C20.0523 18.4187 17.4836 19.7695 15.953 21.9718C15.2625 22.9727 14.8183 24.1251 14.6204 25.3756C14.4224 26.6774 14.473 28.1285 14.8666 29.6309C15.6078 32.9344 17.631 36.6881 20.8418 40.7405C18.8163 43.0431 16.9911 44.5945 15.2119 45.5954C13.9276 46.3466 12.6939 46.7478 11.4602 46.8972C10.1873 47.0418 8.90069 46.8692 7.70842 46.3979C5.28935 45.3971 3.56079 43.1434 3.21554 40.5422C3.06823 39.2917 3.1672 38.0412 3.65976 36.6391C3.80707 36.1375 4.05565 35.6383 4.30193 35.0387C4.64718 34.2385 5.04307 33.387 5.43666 32.5355L5.48729 32.4351C8.89378 24.9767 12.5488 17.3689 16.3512 9.96174L16.4985 9.66079C16.8944 8.91191 17.288 8.10937 17.6839 7.35816C18.0798 6.55795 18.524 5.80674 19.0672 5.15584C20.1053 3.95437 21.4863 3.30347 23.0169 3.30347C24.5475 3.30347 25.9308 3.95437 26.9666 5.15584C27.5098 5.80674 27.954 6.55795 28.3499 7.35816C28.7458 8.10937 29.1393 8.90957 29.5352 9.65845L29.6848 9.95941C33.4366 17.4155 37.0916 25.0233 40.4981 32.4818V32.5308C40.894 33.331 41.2393 34.2339 41.6329 35.0341C41.8791 35.636 42.1277 36.1352 42.275 36.6345C42.6686 37.9386 42.8159 39.1891 42.618 40.4909ZM22.9156 38.1369C20.2503 34.7331 18.5217 31.53 17.9279 28.8284C17.6816 27.6759 17.631 26.6751 17.7806 25.7745C17.8795 24.9743 18.1765 24.2721 18.57 23.6725C19.5091 22.3218 21.0881 21.4702 22.9156 21.4702C24.7431 21.4702 26.3727 22.2728 27.2612 23.6725C27.6571 24.2744 27.9517 24.9743 28.0507 25.7745C28.198 26.6751 28.1496 27.7272 27.9033 28.8284C27.3118 31.481 25.5833 34.6841 22.9156 38.1369ZM45.1867 35.5356C44.9404 34.9361 44.6918 34.2852 44.4455 33.7346C44.0496 32.8341 43.656 31.9825 43.3085 31.1823L43.2601 31.1333C39.8537 23.6259 36.1986 16.0181 32.3479 8.51064L32.2006 8.20969C31.8047 7.45847 31.4111 6.65827 31.0152 5.85806C30.5204 4.95754 30.0278 4.00569 29.2383 3.10517C27.6571 1.10116 25.3853 0 22.9662 0C20.4965 0 18.2754 1.10116 16.6435 3.00252C15.9024 3.90304 15.3592 4.85489 14.8666 5.75541C14.4707 6.55562 14.0772 7.35582 13.6813 8.10704L13.534 8.40565C9.73159 15.9131 6.02819 23.5209 2.6217 31.0284L2.57337 31.1287C2.22812 31.9289 1.83223 32.7804 1.43634 33.6809C1.17165 34.2735 0.925367 34.8754 0.695199 35.482C0.053031 37.3344 -0.144913 39.0864 0.101366 40.8875C0.644562 44.6412 3.11426 47.7953 6.52075 49.1951C7.80509 49.7457 9.13776 49.9953 10.5211 49.9953C10.917 49.9953 11.4095 49.9463 11.8054 49.895C13.435 49.6944 15.1129 49.1461 16.7425 48.1943C18.768 47.0441 20.6922 45.3924 22.865 42.9895C25.0378 45.3924 27.0126 47.0441 28.9874 48.1943C30.617 49.1461 32.295 49.6944 33.9245 49.895C34.3204 49.9463 34.813 49.9953 35.2089 49.9953C36.5922 49.9953 37.9732 49.7457 39.2092 49.1951C42.6663 47.793 45.0854 44.5899 45.6286 40.8875C46.0245 39.1377 45.8265 37.388 45.1867 35.5356Z" fill="#CD325D"/>
</svg>
