<svg width="37" height="36" viewBox="0 0 37 36" fill="none" xmlns="http://www.w3.org/2000/svg">
<path fill-rule="evenodd" clip-rule="evenodd" d="M6.35 18C6.35 13.1465 6.35 10.7198 7.50653 8.97192C8.02298 8.1914 8.69143 7.52296 9.47195 7.00651C11.2198 5.84998 13.6466 5.84998 18.5 5.84998C23.3534 5.84998 25.7802 5.84998 27.5281 7.00651C28.3086 7.52296 28.977 8.1914 29.4935 8.97192C30.65 10.7198 30.65 13.1465 30.65 18C30.65 22.8534 30.65 25.2801 29.4935 27.028C28.977 27.8086 28.3086 28.477 27.5281 28.9934C25.7802 30.15 23.3534 30.15 18.5 30.15C13.6466 30.15 11.2198 30.15 9.47195 28.9934C8.69143 28.477 8.02298 27.8086 7.50653 27.028C6.35 25.2801 6.35 22.8534 6.35 18ZM24.79 18.0003C24.79 21.4743 21.9738 24.2905 18.4998 24.2905C15.0258 24.2905 12.2096 21.4743 12.2096 18.0003C12.2096 14.5263 15.0258 11.7101 18.4998 11.7101C21.9738 11.7101 24.79 14.5263 24.79 18.0003ZM18.4998 22.1624C20.7984 22.1624 22.6618 20.2989 22.6618 18.0003C22.6618 15.7017 20.7984 13.8382 18.4998 13.8382C16.2011 13.8382 14.3377 15.7017 14.3377 18.0003C14.3377 20.2989 16.2011 22.1624 18.4998 22.1624ZM25.0384 12.8722C25.8547 12.8722 26.5164 12.2104 26.5164 11.3941C26.5164 10.5779 25.8547 9.91614 25.0384 9.91614C24.2221 9.91614 23.5604 10.5779 23.5604 11.3941C23.5604 12.2104 24.2221 12.8722 25.0384 12.8722Z" fill="black"/>
</svg>
