<svg width="30" height="30" viewBox="0 0 30 30" fill="none" xmlns="http://www.w3.org/2000/svg">
<path fill-rule="evenodd" clip-rule="evenodd" d="M0.916748 15C0.916748 9.3077 0.916748 6.46154 2.27318 4.41154C2.87889 3.49612 3.66286 2.71214 4.57829 2.10643C6.62829 0.75 9.47444 0.75 15.1667 0.75C20.8591 0.75 23.7052 0.75 25.7552 2.10643C26.6706 2.71214 27.4546 3.49612 28.0603 4.41154C29.4167 6.46154 29.4167 9.3077 29.4167 15C29.4167 20.6923 29.4167 23.5385 28.0603 25.5885C27.4546 26.5039 26.6706 27.2879 25.7552 27.8936C23.7052 29.25 20.8591 29.25 15.1667 29.25C9.47444 29.25 6.62829 29.25 4.57829 27.8936C3.66286 27.2879 2.87889 26.5039 2.27318 25.5885C0.916748 23.5385 0.916748 20.6923 0.916748 15ZM22.5439 15.0004C22.5439 19.0748 19.2409 22.3778 15.1665 22.3778C11.0921 22.3778 7.7891 19.0748 7.7891 15.0004C7.7891 10.9259 11.0921 7.62296 15.1665 7.62296C19.2409 7.62296 22.5439 10.9259 22.5439 15.0004ZM15.1665 19.8818C17.8624 19.8818 20.0479 17.6963 20.0479 15.0004C20.0479 12.3044 17.8624 10.1189 15.1665 10.1189C12.4706 10.1189 10.2851 12.3044 10.2851 15.0004C10.2851 17.6963 12.4706 19.8818 15.1665 19.8818ZM22.8353 8.98579C23.7926 8.98579 24.5687 8.20968 24.5687 7.25232C24.5687 6.29495 23.7926 5.51884 22.8353 5.51884C21.8779 5.51884 21.1018 6.29495 21.1018 7.25232C21.1018 8.20968 21.8779 8.98579 22.8353 8.98579Z" fill="#CD325D"/>
</svg>
