<svg width="67" height="72" viewBox="0 0 67 72" fill="none" xmlns="http://www.w3.org/2000/svg">
<g clip-path="url(#clip0_111_385)">
<path d="M61.4076 58.3066C60.9104 62.0557 58.4213 65.2976 54.9378 66.7388C53.2309 67.4578 51.3815 67.6761 49.532 67.4578C47.7555 67.2428 45.9757 66.6649 44.1295 65.5865C41.5708 64.142 39.0087 61.9113 36.0225 58.5955C40.7157 52.7568 43.5594 47.4253 44.6267 42.6683C45.1238 40.4342 45.1968 38.4152 44.9813 36.5406C44.6963 34.74 44.0566 33.0804 43.0623 31.6392C40.8582 28.3973 37.1593 26.5227 33.0362 26.5227C28.913 26.5227 25.2141 28.4678 23.0101 31.6392C22.0157 33.0804 21.376 34.74 21.091 36.5406C20.806 38.4152 20.8789 40.5048 21.4456 42.6683C22.5129 47.4253 25.4263 52.8307 30.0499 58.666C27.1332 61.9818 24.5049 64.2159 21.9428 65.6571C20.0934 66.7388 18.3168 67.3167 16.5403 67.5317C14.7074 67.74 12.8547 67.4914 11.1378 66.8127C7.65435 65.3715 5.16523 62.1263 4.66806 58.3805C4.45594 56.5798 4.59846 54.7791 5.30775 52.7601C5.51987 52.0378 5.87783 51.3189 6.23247 50.4555C6.72963 49.3032 7.29971 48.077 7.86648 46.8508L7.93939 46.7064C12.8447 35.9662 18.108 25.011 23.5834 14.3447L23.7956 13.9113C24.3656 12.8329 24.9324 11.6772 25.5025 10.5955C26.0726 9.4432 26.7123 8.36146 27.4945 7.42417C28.9893 5.69404 30.9779 4.75675 33.182 4.75675C35.3861 4.75675 37.3781 5.69404 38.8695 7.42417C39.6517 8.36146 40.2914 9.4432 40.8615 10.5955C41.4316 11.6772 41.9984 12.8295 42.5684 13.9079L42.7839 14.3413C48.1864 25.0781 53.4497 36.0333 58.355 46.7736V46.8441C58.9251 47.9964 59.4222 49.2965 59.989 50.4488C60.3437 51.3155 60.7016 52.0345 60.9137 52.7534C61.4805 54.6313 61.6926 56.432 61.4076 58.3066ZM33.0362 54.9169C29.1981 50.0154 26.7089 45.4029 25.8538 41.5126C25.4992 39.8531 25.4263 38.4118 25.6417 37.1151C25.7842 35.9628 26.2118 34.9516 26.7785 34.0882C28.1308 32.1431 30.4045 30.9169 33.0362 30.9169C35.6678 30.9169 38.0144 32.0725 39.2938 34.0882C39.8639 34.955 40.2881 35.9628 40.4306 37.1151C40.6428 38.4118 40.5732 39.927 40.2185 41.5126C39.3667 45.3323 36.8776 49.9449 33.0362 54.9169ZM65.1065 51.1711C64.7518 50.3077 64.3939 49.3704 64.0392 48.5776C63.4692 47.2808 62.9024 46.0546 62.4019 44.9023L62.3323 44.8318C57.427 34.021 52.1637 23.0658 46.6187 12.2551L46.4065 11.8217C45.8364 10.74 45.2697 9.58766 44.6996 8.43537C43.987 7.13861 43.2777 5.76795 42.1409 4.4712C39.8639 1.58542 36.5925 -0.000244141 33.1091 -0.000244141C29.5527 -0.000244141 26.3543 1.58542 24.0044 4.32338C22.9371 5.62014 22.1549 6.9908 21.4456 8.28755C20.8756 9.43984 20.3088 10.5921 19.7387 11.6739L19.5266 12.1039C14.0512 22.9146 8.71828 33.8699 3.81294 44.6806L3.74334 44.8251C3.24618 45.9774 2.6761 47.2036 2.10602 48.5003C1.72486 49.3536 1.37022 50.2204 1.03878 51.0938C0.114053 53.7612 -0.170987 56.2842 0.183655 58.8777C0.965858 64.2831 4.52223 68.8251 9.42757 70.8407C11.277 71.6336 13.1961 71.993 15.188 71.993C15.7581 71.993 16.4674 71.9225 17.0375 71.8486C19.3841 71.5597 21.8003 70.7702 24.1469 69.3995C27.0636 67.7433 29.8344 65.3648 32.9632 61.9046C36.0921 65.3648 38.9358 67.7433 41.7796 69.3995C44.1262 70.7702 46.5424 71.5597 48.889 71.8486C49.4591 71.9225 50.1684 71.993 50.7385 71.993C52.7304 71.993 54.7191 71.6336 56.4989 70.8407C61.4772 68.8217 64.9606 64.2092 65.7428 58.8777C66.3129 56.3581 66.0279 53.8385 65.1065 51.1711Z" fill="white"/>
</g>
<defs>
<clipPath id="clip0_111_385">
<rect width="66" height="72" fill="white" transform="translate(0.0376587 -0.000244141)"/>
</clipPath>
</defs>
</svg>
