<svg width="130" height="40" viewBox="0 0 130 40" fill="none" xmlns="http://www.w3.org/2000/svg">
<path d="M68.5033 10.0506C68.5033 11.4922 67.3287 12.653 65.871 12.653C64.4134 12.653 63.2396 11.4922 63.2396 10.0506C63.2396 8.60903 64.3733 7.44825 65.871 7.44825C67.37 7.48825 68.5033 8.64943 68.5033 10.0506ZM57.6524 15.2961V15.9369C57.6524 15.9369 56.3977 14.3345 53.7254 14.3345C49.3128 14.3345 45.8708 17.6581 45.8708 22.2624C45.8708 26.8271 49.2723 30.1902 53.7254 30.1902C56.4382 30.1902 57.6524 28.5486 57.6524 28.5486V29.229C57.6524 29.5494 57.8959 29.789 58.2194 29.789H61.4984V14.7337H58.2194C57.8959 14.7349 57.6524 15.0157 57.6524 15.2961ZM57.6524 24.9451C57.0457 25.8263 55.8307 26.5871 54.3734 26.5871C51.7824 26.5871 49.7981 24.9855 49.7981 22.2624C49.7981 19.5396 51.7824 17.938 54.3734 17.938C55.7906 17.938 57.0861 18.7388 57.6524 19.5796V24.9451ZM63.928 14.7349H67.8145V29.7902H63.928V14.7349ZM121.987 14.3341C119.314 14.3341 118.059 15.9365 118.059 15.9365V7.48825H114.172V29.7902H117.452C117.776 29.7902 118.018 29.5098 118.018 29.2294V28.549C118.018 28.549 119.274 30.1906 121.945 30.1906C126.359 30.1906 129.8 26.8283 129.8 22.2636C129.8 17.6988 126.359 14.3341 121.987 14.3341ZM121.339 26.5467C119.84 26.5467 118.666 25.7867 118.059 24.9051V19.5396C118.666 18.7388 119.962 17.898 121.339 17.898C123.93 17.898 125.913 19.4996 125.913 22.2224C125.913 24.9451 123.93 26.5467 121.339 26.5467ZM112.148 20.8616V29.8302H108.261V21.3016C108.261 18.8196 107.451 17.818 105.266 17.818C104.093 17.818 102.878 18.4188 102.107 19.3V29.7906H98.2215V14.7353H101.298C101.621 14.7353 101.865 15.0157 101.865 15.2961V15.9369C102.998 14.7753 104.496 14.3345 105.994 14.3345C107.694 14.3345 109.112 14.8157 110.245 15.7765C111.621 16.8977 112.148 18.3388 112.148 20.8616ZM88.7867 14.3341C86.1152 14.3341 84.8597 15.9365 84.8597 15.9365V7.48825H80.9733V29.7902H84.2522C84.5762 29.7902 84.8193 29.5098 84.8193 29.2294V28.549C84.8193 28.549 86.0747 30.1906 88.7462 30.1906C93.1597 30.1906 96.6009 26.8283 96.6009 22.2636C96.6413 17.6984 93.2002 14.3341 88.7867 14.3341ZM88.1387 26.5467C86.641 26.5467 85.4673 25.7867 84.8597 24.9051V19.5396C85.4673 18.7388 86.7627 17.898 88.1387 17.898C90.7305 17.898 92.714 19.4996 92.714 22.2224C92.714 24.9451 90.7305 26.5467 88.1387 26.5467ZM77.6126 14.3341C78.7863 14.3341 79.3938 14.5349 79.3938 14.5349V18.098C79.3938 18.098 76.1549 17.0169 74.131 19.2996V29.8298H70.2437V14.7349H73.5235C73.8475 14.7349 74.0897 15.0153 74.0897 15.2957V15.9365C74.8194 15.0953 76.3984 14.3341 77.6126 14.3341ZM37.2476 28.4286C37.0454 27.9482 36.8428 27.4279 36.6405 26.9871C36.3162 26.2667 35.9922 25.5855 35.7095 24.9451L35.669 24.9051C32.875 18.8988 29.8795 12.8133 26.7211 6.80787L26.5998 6.56707C26.2676 5.94407 25.9438 5.3167 25.6286 4.68511C25.2234 3.96393 24.8189 3.20394 24.171 2.48275C22.8755 0.881182 21.0129 0 19.0294 0C17.0047 0 15.183 0.881187 13.8475 2.40236C13.24 3.12274 12.7942 3.88353 12.3898 4.60472C12.0738 5.23591 11.7501 5.86327 11.4187 6.48667L11.2969 6.72746C8.17933 12.7329 5.14303 18.8188 2.34941 24.8247L2.30856 24.9043C2.02544 25.5459 1.70106 26.2263 1.37708 26.9463C1.17485 27.387 0.972622 27.8674 0.770391 28.3878C0.24378 29.869 0.0815832 31.2706 0.284623 32.7126C0.729936 35.7157 2.75387 38.2372 5.54789 39.3592C6.60071 39.8 7.69397 40 8.82727 40C9.15125 40 9.55572 39.96 9.8801 39.9196C11.2164 39.7596 12.5928 39.3196 13.9292 38.5588C15.5891 37.6376 17.1681 36.3169 18.9494 34.3949C20.7306 36.3169 22.3501 37.6376 23.9695 38.5588C25.3063 39.3196 26.6823 39.7596 28.0182 39.9196C28.3422 39.9604 28.7475 40 29.0714 40C30.2051 40 31.3384 39.8 32.3504 39.3592C35.1849 38.2372 37.1684 35.6757 37.6141 32.7126C37.9356 31.3114 37.7738 29.9106 37.2476 28.4286ZM18.9886 30.5106C16.8021 27.7878 15.3848 25.2255 14.8995 23.0639C14.6972 22.1428 14.6564 21.342 14.7781 20.6212C14.8586 19.9804 15.1021 19.4196 15.4261 18.9392C16.1954 17.8588 17.4909 17.1777 18.989 17.1777C20.4875 17.1777 21.8235 17.8184 22.5523 18.9392C22.8763 19.4196 23.119 19.9808 23.2007 20.6212C23.3216 21.3424 23.2812 22.1828 23.0789 23.0639C22.5915 25.1855 21.1743 27.7482 18.9886 30.5106ZM35.142 32.3926C34.8589 34.4745 33.4416 36.2769 31.4582 37.0776C30.4866 37.4776 29.4334 37.598 28.3814 37.4776C27.3695 37.3572 26.3567 37.0369 25.3047 36.4369C23.847 35.6353 22.3897 34.3949 20.689 32.5525C23.3608 29.3098 24.9803 26.3463 25.5878 23.7043C25.8713 22.4628 25.9122 21.342 25.79 20.3004C25.6287 19.2996 25.2638 18.3784 24.6972 17.5777C23.4413 15.7753 21.3357 14.7349 18.9882 14.7349C16.6407 14.7349 14.5351 15.8161 13.28 17.5777C12.7134 18.3784 12.3485 19.2996 12.1867 20.3004C12.025 21.342 12.065 22.5028 12.389 23.7043C12.9961 26.3463 14.656 29.3494 17.2874 32.5926C15.6275 34.4345 14.1294 35.6761 12.6717 36.4769C11.6189 37.0777 10.6073 37.3981 9.59536 37.5177C8.5025 37.638 7.44928 37.4777 6.51821 37.1177C4.53472 36.3169 3.11748 34.5145 2.83436 32.4326C2.71302 31.4318 2.79351 30.431 3.19878 29.3098C3.31972 28.909 3.52275 28.509 3.72499 28.0286C4.00851 27.3879 4.33168 26.7067 4.65606 26.0263L4.69691 25.9467C7.49013 19.9804 10.486 13.8945 13.6036 7.96904L13.7249 7.72825C14.0493 7.12826 14.3733 6.48747 14.6968 5.88669C15.0208 5.2459 15.3848 4.64511 15.8305 4.12432C16.6807 3.16434 17.814 2.64315 19.0695 2.64315C20.3249 2.64315 21.4582 3.16434 22.3084 4.12432C22.7541 4.64631 23.1181 5.2471 23.4421 5.88669C23.7665 6.48747 24.0905 7.12826 24.4136 7.72825L24.5354 7.96904C27.6054 13.9191 30.5615 19.9261 33.402 25.9867V26.0267C33.7264 26.6683 34.0095 27.3883 34.3335 28.0298C34.5357 28.5094 34.7384 28.9094 34.8597 29.3102C35.1829 30.3502 35.3042 31.3518 35.142 32.3926Z" fill="white"/>
</svg>
