<svg width="15" height="16" viewBox="0 0 15 16" fill="none" xmlns="http://www.w3.org/2000/svg">
<g clip-path="url(#clip0_173_961)">
<path d="M14.1965 10.5286L10.0286 14.6965C9.87793 14.8469 9.67369 14.9315 9.46074 14.9315C9.24779 14.9315 9.04356 14.8469 8.89289 14.6965L1.91789 7.72146C1.87632 7.68172 1.84417 7.6332 1.82378 7.57944C1.80339 7.52568 1.79527 7.46804 1.80003 7.41074L2.43217 3.29646C2.43954 3.2023 2.48029 3.11386 2.54707 3.04707C2.61386 2.98029 2.7023 2.93954 2.79646 2.93217L6.91074 2.30003C6.96804 2.29527 7.02568 2.30339 7.07944 2.32378C7.1332 2.34417 7.18172 2.37632 7.22146 2.41789L14.1965 9.39289C14.3469 9.54356 14.4315 9.74779 14.4315 9.96074C14.4315 10.1737 14.3469 10.3779 14.1965 10.5286V10.5286Z" stroke="#606060" stroke-linecap="round" stroke-linejoin="round"/>
<path d="M4.31787 4.81787L0.567871 1.06787" stroke="#606060" stroke-linecap="round" stroke-linejoin="round"/>
</g>
<defs>
<clipPath id="clip0_173_961">
<rect width="15" height="15" fill="white" transform="translate(0 0.5)"/>
</clipPath>
</defs>
</svg>
