<svg width="26" height="25" viewBox="0 0 26 25" fill="none" xmlns="http://www.w3.org/2000/svg">
<g clip-path="url(#clip0_135_469)">
<path d="M12.9464 24.1072C14.9189 24.1072 16.5179 22.5082 16.5179 20.5357C16.5179 18.5633 14.9189 16.9643 12.9464 16.9643C10.974 16.9643 9.375 18.5633 9.375 20.5357C9.375 22.5082 10.974 24.1072 12.9464 24.1072Z" stroke="white" stroke-width="2" stroke-linecap="round" stroke-linejoin="round"/>
<path d="M12.9464 16.9643V0.892883" stroke="white" stroke-width="2" stroke-linecap="round" stroke-linejoin="round"/>
<path d="M10.2679 3.57145L12.9464 0.892883L15.625 3.57145" stroke="white" stroke-width="2" stroke-linecap="round" stroke-linejoin="round"/>
<path d="M11.2143 17.4643C10.1909 17.1585 9.24598 16.6346 8.44449 15.9287C7.64299 15.2228 7.00397 14.3515 6.57141 13.375" stroke="white" stroke-width="2" stroke-linecap="round" stroke-linejoin="round"/>
<path d="M6.25 13.3929C7.48277 13.3929 8.48214 12.3935 8.48214 11.1607C8.48214 9.92795 7.48277 8.92859 6.25 8.92859C5.01722 8.92859 4.01785 9.92795 4.01785 11.1607C4.01785 12.3935 5.01722 13.3929 6.25 13.3929Z" stroke="white" stroke-width="2" stroke-linecap="round" stroke-linejoin="round"/>
<path d="M13 15.3571C14.3707 14.9429 15.6365 14.239 16.7117 13.2932C17.7869 12.3474 18.6464 11.1817 19.2321 9.875" stroke="white" stroke-width="2" stroke-linecap="round" stroke-linejoin="round"/>
<path d="M19.75 9.94646C20.9828 9.94646 21.9821 8.9471 21.9821 7.71432C21.9821 6.48154 20.9828 5.48218 19.75 5.48218C18.5172 5.48218 17.5179 6.48154 17.5179 7.71432C17.5179 8.9471 18.5172 9.94646 19.75 9.94646Z" stroke="white" stroke-width="2" stroke-linecap="round" stroke-linejoin="round"/>
</g>
<defs>
<clipPath id="clip0_135_469">
<rect width="25" height="25" fill="white" transform="translate(0.5)"/>
</clipPath>
</defs>
</svg>
