<svg width="15" height="16" viewBox="0 0 15 16" fill="none" xmlns="http://www.w3.org/2000/svg">
<g clip-path="url(#clip0_173_935)">
<path d="M7.46781 14.9643C8.65128 14.9643 9.61067 14.0049 9.61067 12.8214C9.61067 11.638 8.65128 10.6786 7.46781 10.6786C6.28434 10.6786 5.32495 11.638 5.32495 12.8214C5.32495 14.0049 6.28434 14.9643 7.46781 14.9643Z" stroke="#606060" stroke-linecap="round" stroke-linejoin="round"/>
<path d="M7.4679 10.6786V1.03577" stroke="#606060" stroke-linecap="round" stroke-linejoin="round"/>
<path d="M5.86072 2.64291L7.46786 1.03577L9.075 2.64291" stroke="#606060" stroke-linecap="round" stroke-linejoin="round"/>
<path d="M6.42854 10.9786C5.81453 10.7951 5.24757 10.4808 4.76667 10.0572C4.28577 9.63368 3.90236 9.11095 3.64282 8.52502" stroke="#606060" stroke-linecap="round" stroke-linejoin="round"/>
<path d="M3.45 8.53575C4.18967 8.53575 4.78929 7.93613 4.78929 7.19646C4.78929 6.4568 4.18967 5.85718 3.45 5.85718C2.71034 5.85718 2.11072 6.4568 2.11072 7.19646C2.11072 7.93613 2.71034 8.53575 3.45 8.53575Z" stroke="#606060" stroke-linecap="round" stroke-linejoin="round"/>
<path d="M7.5 9.71433C8.32245 9.46576 9.08192 9.04345 9.72703 8.47597C10.3721 7.90849 10.8879 7.20908 11.2393 6.42505" stroke="#606060" stroke-linecap="round" stroke-linejoin="round"/>
<path d="M11.55 6.46788C12.2896 6.46788 12.8893 5.86826 12.8893 5.12859C12.8893 4.38893 12.2896 3.78931 11.55 3.78931C10.8103 3.78931 10.2107 4.38893 10.2107 5.12859C10.2107 5.86826 10.8103 6.46788 11.55 6.46788Z" stroke="#606060" stroke-linecap="round" stroke-linejoin="round"/>
</g>
<defs>
<clipPath id="clip0_173_935">
<rect width="15" height="15" fill="white" transform="translate(0 0.5)"/>
</clipPath>
</defs>
</svg>
