<svg width="37" height="36" viewBox="0 0 37 36" fill="none" xmlns="http://www.w3.org/2000/svg">
<path d="M29.2358 12.4768C29.2523 12.7155 29.2523 12.9542 29.2523 13.1951C29.2523 20.5349 23.6801 29 13.491 29V28.9956C10.4812 29 7.53382 28.1355 5 26.5054C5.43766 26.5582 5.87751 26.5846 6.31846 26.5857C8.8128 26.5879 11.2358 25.7486 13.1982 24.2032C10.8278 24.1581 8.74918 22.6083 8.02303 20.3457C8.85338 20.5063 9.70896 20.4733 10.5239 20.2501C7.93967 19.7265 6.08044 17.4496 6.08044 14.8054C6.08044 14.7812 6.08044 14.7581 6.08044 14.735C6.85046 15.1651 7.71261 15.4038 8.59452 15.4302C6.16051 13.799 5.41024 10.552 6.88007 8.01332C9.6925 11.4836 13.842 13.5933 18.2965 13.8166C17.8501 11.8873 18.46 9.86561 19.8991 8.50939C22.1302 6.40633 25.6391 6.51412 27.7364 8.75028C28.977 8.50499 30.166 8.04852 31.2541 7.40176C30.8406 8.68758 29.9751 9.77981 28.819 10.4739C29.917 10.3441 30.9898 10.0493 32 9.59942C31.2563 10.717 30.3196 11.6904 29.2358 12.4768Z" fill="black"/>
</svg>
