<svg width="32" height="27" viewBox="0 0 32 27" fill="none" xmlns="http://www.w3.org/2000/svg">
<path d="M28.6748 6.90571C28.6941 7.18488 28.6941 7.46405 28.6941 7.74578C28.6941 16.3305 22.1588 26.2312 10.2087 26.2312V26.226C6.67859 26.2312 3.22183 25.22 0.250061 23.3135C0.763366 23.3752 1.27924 23.4061 1.79641 23.4074C4.72186 23.4099 7.56369 22.4284 9.8652 20.6209C7.08512 20.5681 4.64724 18.7555 3.7956 16.1092C4.76946 16.297 5.77291 16.2584 6.72877 15.9973C3.69782 15.3849 1.51724 12.7219 1.51724 9.62919C1.51724 9.60089 1.51724 9.57387 1.51724 9.54685C2.42035 10.0499 3.43152 10.329 4.46585 10.3599C1.61116 8.45206 0.731204 4.65438 2.45509 1.68518C5.75362 5.74402 10.6204 8.21149 15.8448 8.47264C15.3212 6.21616 16.0364 3.85161 17.7243 2.26539C20.341 -0.194361 24.4564 -0.0682858 26.9162 2.54712C28.3712 2.26024 29.7657 1.72635 31.0419 0.969902C30.5569 2.4738 29.5419 3.75127 28.1859 4.56304C29.4737 4.41123 30.7319 4.06646 31.9167 3.54029C31.0445 4.84735 29.9458 5.98588 28.6748 6.90571Z" fill="#CD325D"/>
</svg>
