<svg width="80" height="81" viewBox="0 0 80 81" fill="none" xmlns="http://www.w3.org/2000/svg">
<path d="M75.6 36.6715C76.5477 37.7215 77.0722 39.0856 77.0722 40.5C77.0722 41.9144 76.5477 43.2786 75.6 44.3286C69.6 50.7857 55.9429 63.3572 40 63.3572C24.0572 63.3572 10.4 50.7857 4.40002 44.3286C3.45236 43.2786 2.9278 41.9144 2.9278 40.5C2.9278 39.0856 3.45236 37.7215 4.40002 36.6715C10.4 30.2143 24.0572 17.6429 40 17.6429C55.9429 17.6429 69.6 30.2143 75.6 36.6715Z" stroke="white" stroke-width="4" stroke-linecap="round" stroke-linejoin="round"/>
<path d="M40 51.9286C46.3119 51.9286 51.4286 46.8119 51.4286 40.5C51.4286 34.1882 46.3119 29.0715 40 29.0715C33.6882 29.0715 28.5715 34.1882 28.5715 40.5C28.5715 46.8119 33.6882 51.9286 40 51.9286Z" stroke="white" stroke-width="4" stroke-linecap="round" stroke-linejoin="round"/>
</svg>
