<svg xmlns="http://www.w3.org/2000/svg" xmlns:xlink="http://www.w3.org/1999/xlink" viewBox="0 0 61.49 65.73"><defs><style>.cls-1{isolation:isolate;}.cls-2{opacity:0.8;mix-blend-mode:multiply;fill:url(#radial-gradient);}.cls-3{fill:#0e6735;}.cls-4,.cls-5{fill:#fff;}.cls-5{fill-rule:evenodd;}</style><radialGradient id="radial-gradient" cx="31.81" cy="36.05" r="29.68" gradientUnits="userSpaceOnUse"><stop offset="0" stop-color="#20234a"/><stop offset="0.31" stop-color="#71738c" stop-opacity="0.64"/><stop offset="0.76" stop-color="#d8d8df" stop-opacity="0.18"/><stop offset="1" stop-color="#fff" stop-opacity="0"/></radialGradient></defs><g class="cls-1"><g id="Capa_2" data-name="Capa 2"><g id="graficos"><circle class="cls-2" cx="31.81" cy="36.05" r="29.68"/><circle class="cls-3" cx="23.83" cy="23.83" r="23.83"/><path class="cls-4" d="M11.56,36.13l1.76-6.58a12.2,12.2,0,1,1,4.86,4.81Zm6.94-4.24.42.25a9.88,9.88,0,1,0-3.38-3.35l.25.42-1,3.67Z"/><path class="cls-5" d="M28.47,25.37A2,2,0,0,0,26.73,25c-.45.18-.74.89-1,1.25a.42.42,0,0,1-.56.12A7.86,7.86,0,0,1,21.2,23a.49.49,0,0,1,.06-.66A2.67,2.67,0,0,0,22,21.17a2.49,2.49,0,0,0-.32-1.38c-.24-.51-.5-1.24-1-1.52a1.38,1.38,0,0,0-1.51.22,3,3,0,0,0-1.06,2.43,3.31,3.31,0,0,0,.09.77,6.75,6.75,0,0,0,.74,1.7c.24.4.49.79.77,1.17A12.12,12.12,0,0,0,23,27.67a9.92,9.92,0,0,0,2.08,1,4.62,4.62,0,0,0,2.43.38,2.94,2.94,0,0,0,2.2-1.64,1.39,1.39,0,0,0,.1-.83C29.72,26,28.94,25.65,28.47,25.37Z"/></g></g></g></svg>