<svg xmlns="http://www.w3.org/2000/svg" xmlns:xlink="http://www.w3.org/1999/xlink" viewBox="0 0 61.49 66.93"><defs><style>.cls-1{isolation:isolate;}.cls-2{opacity:0.8;mix-blend-mode:multiply;fill:url(#radial-gradient);}.cls-3{fill:#fff;}.cls-4{fill:#0e6735;}</style><radialGradient id="radial-gradient" cx="31.81" cy="37.24" r="29.68" gradientUnits="userSpaceOnUse"><stop offset="0" stop-color="#20234a"/><stop offset="0.31" stop-color="#71738c" stop-opacity="0.64"/><stop offset="0.76" stop-color="#d8d8df" stop-opacity="0.18"/><stop offset="1" stop-color="#fff" stop-opacity="0"/></radialGradient></defs><g class="cls-1"><g id="Capa_2" data-name="Capa 2"><g id="texto"><circle class="cls-2" cx="31.81" cy="37.24" r="29.68"/><circle class="cls-3" cx="23.83" cy="23.83" r="23.83"/><path class="cls-4" d="M30.4,15.86a1.46,1.46,0,1,0,1.45,1.45A1.46,1.46,0,0,0,30.4,15.86Z"/><path class="cls-4" d="M23.93,17.72A6.11,6.11,0,1,0,30,23.83,6.12,6.12,0,0,0,23.93,17.72Zm0,10a3.91,3.91,0,1,1,3.92-3.91A3.92,3.92,0,0,1,23.93,27.74Z"/><path class="cls-4" d="M28.78,36.23h-9.9a7.46,7.46,0,0,1-7.45-7.45v-9.9a7.46,7.46,0,0,1,7.45-7.45h9.9a7.46,7.46,0,0,1,7.45,7.45v9.9A7.46,7.46,0,0,1,28.78,36.23Zm-9.9-22.47a5.13,5.13,0,0,0-5.12,5.12v9.9a5.13,5.13,0,0,0,5.12,5.12h9.9a5.13,5.13,0,0,0,5.12-5.12v-9.9a5.13,5.13,0,0,0-5.12-5.12Z"/></g></g></g></svg>