<svg xmlns="http://www.w3.org/2000/svg" viewBox="0 0 32.24 32.24"><defs><style>.cls-1{fill:#0e6735;}</style></defs><g id="Capa_2" data-name="Capa 2"><g id="texto"><path class="cls-1" d="M19.93,23.18l8.39,8.39a2.3,2.3,0,0,0,3.25-3.25l-8.39-8.39a12.84,12.84,0,0,0,1.25-2.27A12.72,12.72,0,0,0,7.76,1,12.7,12.7,0,0,0,0,12.71,12.72,12.72,0,0,0,17.66,24.43,12.84,12.84,0,0,0,19.93,23.18Zm2.44-10.47A9.65,9.65,0,0,1,5.89,19.54a9.64,9.64,0,0,1,0-13.65,9.66,9.66,0,0,1,16.48,6.82Z"/><path class="cls-1" d="M18.43,12.71A5.59,5.59,0,0,0,18,10.53a5.72,5.72,0,0,0-1.21-1.79A5.65,5.65,0,0,0,15,7.54a5.28,5.28,0,0,0-1.07-.33,1.23,1.23,0,0,1,.48-2.41A8.09,8.09,0,0,1,18.51,7a7.78,7.78,0,0,1,1.73,2.56,8.05,8.05,0,0,1,.64,3.14,1.23,1.23,0,1,1-2.45,0Z"/></g></g></svg>