<svg width="166" height="46" viewBox="0 0 166 46" fill="none" xmlns="http://www.w3.org/2000/svg">
<path d="M64.9129 26.7398L68.6725 27.264C67.9013 32.7466 65.2082 35.4879 60.5931 35.4879C57.5928 35.4879 55.3575 34.3371 53.8875 32.0356C52.4174 29.7341 51.6824 26.6554 51.6824 22.7995C51.6824 18.6424 52.4596 15.4552 54.014 13.2381C55.5684 11.021 57.8096 9.91239 60.7377 9.91239C65.2684 9.91239 67.9254 12.72 68.7086 18.3351L64.9129 18.8954C64.5033 15.16 63.1175 13.2923 60.7558 13.2923C57.5988 13.2923 56.0203 16.5397 56.0203 23.0345C56.0203 29.0835 57.5988 32.1079 60.7558 32.1079C62.021 32.1079 62.9609 31.65 63.5754 30.7343C64.202 29.8064 64.6479 28.475 64.9129 26.7398Z" fill="white"/>
<path d="M85.3914 25.7276C85.3914 32.2345 82.9815 35.4879 78.1616 35.4879C75.9444 35.4879 74.1972 34.7046 72.92 33.1382C71.6548 31.5597 71.0221 29.1497 71.0221 25.9084C71.0221 19.5341 73.4321 16.3469 78.252 16.3469C80.445 16.3469 82.1802 17.1241 83.4574 18.6785C84.7468 20.233 85.3914 22.5826 85.3914 25.7276ZM81.3969 25.9084C81.3969 23.3418 81.1077 21.5825 80.5294 20.6306C79.963 19.6666 79.1918 19.1846 78.2158 19.1846C76.0951 19.1846 75.0347 21.4259 75.0347 25.9084C75.0347 28.1978 75.2817 29.8908 75.7758 30.9873C76.2698 32.0838 77.0831 32.6321 78.2158 32.6321C79.3364 32.6321 80.1438 32.0778 80.6378 30.9692C81.1439 29.8486 81.3969 28.1617 81.3969 25.9084Z" fill="white"/>
<path d="M88.9979 16.4043H92.3922V20.5734C93.4253 17.5357 94.9749 16.0169 97.041 16.0169C97.2377 16.0169 97.4714 16.0353 97.742 16.0722V20.0753C97.4222 20.0384 97.1639 20.0199 96.9672 20.0199C94.2247 20.0199 92.8534 21.8647 92.8534 25.5541V35.036H88.9979V16.4043Z" fill="white"/>
<path d="M101.524 11.5526L104.992 11.2206V16.4043H108.552V19.5034H104.992V27.7309C104.992 29.1821 105.029 30.1475 105.102 30.6271C105.176 31.0944 105.398 31.4818 105.767 31.7893C106.135 32.0845 106.75 32.232 107.611 32.232C108.066 32.232 108.583 32.189 109.161 32.1029V35.1651C108.128 35.3865 107.169 35.4972 106.283 35.4972C104.844 35.4972 103.743 35.2205 102.981 34.6671C102.218 34.1014 101.733 33.3389 101.524 32.3796C101.315 31.4204 101.21 29.9569 101.21 27.9892V19.5034H98.7934V16.4043H101.321L101.524 11.5526Z" fill="white"/>
<path d="M115.064 13.8954H111.042V9.8186H115.064V13.8954ZM111.135 16.4043H114.972V35.036H111.135V16.4043Z" fill="white"/>
<path d="M119.51 16.4043H123.07V19.2821C123.931 17.0684 125.468 15.9615 127.682 15.9615C128.936 15.9615 129.945 16.2628 130.707 16.8655C131.482 17.4681 131.968 18.1937 132.165 19.0422C132.374 19.8785 132.478 21.2067 132.478 23.0268V35.036H128.641V23.2298C128.641 21.6064 128.5 20.5057 128.217 19.9277C127.934 19.3374 127.331 19.0422 126.409 19.0422C125.45 19.0422 124.7 19.4173 124.158 20.1675C123.63 20.9054 123.365 22.3812 123.365 24.5949V35.036H119.51V16.4043Z" fill="white"/>
<path d="M150.427 26.292H139.894C139.894 28.8131 140.232 30.498 140.909 31.3466C141.597 32.1828 142.458 32.601 143.491 32.601C145.213 32.601 146.301 31.4388 146.756 29.1144L150.261 29.5756C149.339 33.5233 147.039 35.4972 143.362 35.4972C141.111 35.4972 139.316 34.6917 137.975 33.0806C136.635 31.4695 135.965 29.1083 135.965 25.9969C135.965 22.7993 136.641 20.3274 137.994 18.5811C139.347 16.8347 141.155 15.9615 143.417 15.9615C145.004 15.9615 146.338 16.3981 147.42 17.2713C148.503 18.1445 149.265 19.2943 149.708 20.7209C150.151 22.1352 150.39 23.9923 150.427 26.292ZM146.498 23.6909C146.498 20.4073 145.428 18.7655 143.288 18.7655C141.284 18.7655 140.183 20.4073 139.986 23.6909H146.498Z" fill="white"/>
<path d="M164.853 20.7578L161.846 21.5695C161.293 19.7002 160.241 18.7655 158.692 18.7655C157.978 18.7655 157.4 18.9869 156.958 19.4296C156.527 19.8724 156.312 20.4196 156.312 21.0714C156.312 21.8093 156.533 22.3504 156.976 22.6948C157.419 23.0391 158.433 23.4696 160.02 23.9861C161.975 24.6379 163.383 25.3758 164.244 26.1998C165.105 27.0115 165.536 28.149 165.536 29.6125C165.536 31.2605 164.921 32.6563 163.691 33.8C162.461 34.9315 160.801 35.4972 158.71 35.4972C154.762 35.4972 152.524 33.6894 151.995 30.0737L155.261 29.4649C155.679 31.6048 156.865 32.6748 158.821 32.6748C159.817 32.6748 160.555 32.4288 161.035 31.9369C161.526 31.4449 161.772 30.8608 161.772 30.1844C161.772 29.7171 161.606 29.2559 161.274 28.8008C160.942 28.3335 160.014 27.8539 158.489 27.362C157.025 26.8946 155.918 26.458 155.168 26.0522C154.43 25.6464 153.822 25.0622 153.342 24.2997C152.862 23.5249 152.623 22.6518 152.623 21.6802C152.623 20.0937 153.201 18.7471 154.357 17.6402C155.513 16.5211 157.007 15.9615 158.839 15.9615C161.951 15.9615 163.955 17.5603 164.853 20.7578Z" fill="white"/>
<path d="M121.254 13.5619L122.146 13.719C122.02 14.4185 121.742 14.9673 121.31 15.3652C120.879 15.759 120.34 15.9558 119.695 15.9558C118.82 15.9558 118.152 15.6333 117.691 14.9882C117.234 14.3431 117.006 13.5557 117.006 12.6257C117.006 11.6623 117.247 10.8623 117.729 10.2256C118.215 9.58468 118.874 9.26424 119.708 9.26424C120.399 9.26424 120.952 9.47158 121.367 9.88627C121.786 10.2968 122.045 10.8288 122.146 11.4822L121.254 11.6518C121.086 10.6047 120.579 10.0811 119.733 10.0811C119.188 10.0811 118.77 10.3135 118.476 10.7785C118.183 11.2393 118.037 11.8382 118.037 12.5755C118.037 13.3881 118.181 14.0206 118.47 14.473C118.763 14.9212 119.174 15.1453 119.702 15.1453C120.518 15.1453 121.036 14.6175 121.254 13.5619Z" fill="white"/>
<path d="M127.688 13.8949L128.605 14.0834C128.437 14.6238 128.111 15.072 127.625 15.428C127.139 15.7799 126.567 15.9558 125.909 15.9558C125.042 15.9558 124.341 15.6521 123.805 15.0448C123.268 14.4332 123 13.6331 123 12.6446C123 11.6351 123.279 10.8204 123.836 10.2004C124.393 9.5763 125.093 9.26424 125.935 9.26424C126.764 9.26424 127.43 9.55117 127.933 10.125C128.439 10.6989 128.699 11.5576 128.712 12.7011H124.1C124.1 13.6604 124.301 14.3075 124.703 14.6426C125.105 14.9777 125.53 15.1453 125.978 15.1453C126.787 15.1453 127.357 14.7285 127.688 13.8949ZM127.631 11.966C127.623 11.61 127.564 11.2937 127.455 11.0172C127.346 10.7408 127.162 10.5062 126.902 10.3135C126.642 10.1167 126.33 10.0182 125.966 10.0182C125.476 10.0182 125.059 10.1941 124.716 10.546C124.376 10.8979 124.186 11.3712 124.144 11.966H127.631Z" fill="white"/>
<path d="M131.181 15.7862H130.194V9.44017H131.062V10.923C131.367 10.2235 131.673 9.77108 131.979 9.56583C132.289 9.35639 132.605 9.25167 132.928 9.25167C133.028 9.25167 133.158 9.26005 133.317 9.27681V10.2193H133.116C132.572 10.2193 132.119 10.4224 131.759 10.8288C131.399 11.2351 131.206 11.7691 131.181 12.431V15.7862Z" fill="white"/>
<path d="M139.412 15.7862H138.432C138.394 15.5851 138.356 15.2039 138.319 14.6426C137.883 15.5181 137.142 15.9558 136.094 15.9558C135.382 15.9558 134.836 15.7673 134.454 15.3903C134.073 15.0133 133.883 14.561 133.883 14.0332C133.883 13.3923 134.155 12.8666 134.7 12.4561C135.244 12.0414 136.17 11.8341 137.477 11.8341C137.653 11.8341 137.933 11.8424 138.319 11.8592C138.319 11.3565 138.279 10.9942 138.199 10.7722C138.124 10.546 137.961 10.3659 137.709 10.2318C137.458 10.0978 137.127 10.0308 136.716 10.0308C135.715 10.0308 135.133 10.412 134.97 11.1743L134.059 11.0172C134.281 9.84858 135.215 9.26424 136.861 9.26424C137.736 9.26424 138.356 9.45902 138.721 9.84858C139.089 10.2339 139.274 10.9041 139.274 11.8592V14.5547C139.274 15.0029 139.32 15.4134 139.412 15.7862ZM138.319 12.6132C137.917 12.588 137.611 12.5755 137.401 12.5755C136.622 12.5755 136.017 12.7032 135.585 12.9587C135.154 13.2143 134.938 13.5871 134.938 14.0772C134.938 14.3871 135.053 14.651 135.284 14.8688C135.518 15.0867 135.856 15.1956 136.295 15.1956C136.89 15.1956 137.378 14.9798 137.759 14.5484C138.145 14.1169 138.337 13.6101 138.337 13.0279C138.337 12.9106 138.331 12.7723 138.319 12.6132ZM138.683 7.26619L136.082 8.45371L135.812 7.94477L138.3 6.51221L138.683 7.26619Z" fill="white"/>
<path d="M149.754 15.7862H148.793V11.8403C148.793 11.434 148.763 11.1303 148.705 10.9293C148.65 10.724 148.514 10.5376 148.296 10.3701C148.079 10.1983 147.833 10.1125 147.561 10.1125C147.184 10.1125 146.82 10.2863 146.468 10.634C146.12 10.9775 145.946 11.5031 145.946 12.2111V15.7862H144.991V11.6079C144.991 11.0508 144.857 10.657 144.589 10.4266C144.325 10.1962 144.047 10.0811 143.754 10.0811C143.335 10.0811 142.97 10.2612 142.66 10.6214C142.35 10.9816 142.195 11.4382 142.195 11.9911V15.7862H141.253V9.44017H142.101V10.6591C142.574 9.72919 143.226 9.26424 144.055 9.26424C144.512 9.26424 144.899 9.41294 145.218 9.71035C145.536 10.0077 145.741 10.3659 145.833 10.7848C146.269 9.77108 146.937 9.26424 147.838 9.26424C148.269 9.26424 148.646 9.38781 148.969 9.63495C149.295 9.88209 149.507 10.1669 149.603 10.4895C149.704 10.8078 149.754 11.2581 149.754 11.8403V15.7862Z" fill="white"/>
<path d="M152.751 7.20964V8.30291H151.689V7.20964H152.751ZM152.72 9.44017V15.7862H151.733V9.44017H152.72Z" fill="white"/>
<path d="M158.437 13.5619L159.33 13.719C159.204 14.4185 158.925 14.9673 158.494 15.3652C158.062 15.759 157.524 15.9558 156.879 15.9558C156.004 15.9558 155.336 15.6333 154.875 14.9882C154.418 14.3431 154.19 13.5557 154.19 12.6257C154.19 11.6623 154.431 10.8623 154.913 10.2256C155.398 9.58468 156.058 9.26424 156.892 9.26424C157.583 9.26424 158.136 9.47158 158.55 9.88627C158.969 10.2968 159.229 10.8288 159.33 11.4822L158.437 11.6518C158.27 10.6047 157.763 10.0811 156.917 10.0811C156.372 10.0811 155.953 10.3135 155.66 10.7785C155.367 11.2393 155.22 11.8382 155.22 12.5755C155.22 13.3881 155.365 14.0206 155.654 14.473C155.947 14.9212 156.358 15.1453 156.885 15.1453C157.702 15.1453 158.22 14.6175 158.437 13.5619Z" fill="white"/>
<path d="M165.65 15.7862H164.67C164.633 15.5851 164.595 15.2039 164.557 14.6426C164.122 15.5181 163.38 15.9558 162.333 15.9558C161.621 15.9558 161.074 15.7673 160.693 15.3903C160.312 15.0133 160.121 14.561 160.121 14.0332C160.121 13.3923 160.394 12.8666 160.938 12.4561C161.483 12.0414 162.408 11.8341 163.715 11.8341C163.891 11.8341 164.172 11.8424 164.557 11.8592C164.557 11.3565 164.517 10.9942 164.438 10.7722C164.362 10.546 164.199 10.3659 163.948 10.2318C163.696 10.0978 163.365 10.0308 162.955 10.0308C161.954 10.0308 161.372 10.412 161.208 11.1743L160.297 11.0172C160.519 9.84858 161.453 9.26424 163.1 9.26424C163.975 9.26424 164.595 9.45902 164.959 9.84858C165.328 10.2339 165.512 10.9041 165.512 11.8592V14.5547C165.512 15.0029 165.558 15.4134 165.65 15.7862ZM164.557 12.6132C164.155 12.588 163.849 12.5755 163.64 12.5755C162.861 12.5755 162.255 12.7032 161.824 12.9587C161.393 13.2143 161.177 13.5871 161.177 14.0772C161.177 14.3871 161.292 14.651 161.522 14.8688C161.757 15.0867 162.094 15.1956 162.534 15.1956C163.129 15.1956 163.617 14.9798 163.998 14.5484C164.383 14.1169 164.576 13.6101 164.576 13.0279C164.576 12.9106 164.57 12.7723 164.557 12.6132Z" fill="white"/>
<path d="M4.146 27.0563C4.15126 26.7339 4.22226 26.416 4.35466 26.1219C4.48706 25.8279 4.67807 25.564 4.91599 25.3463L25.356 4.92635C25.563 4.71254 25.8109 4.54253 26.0849 4.42643C26.3589 4.31032 26.6534 4.25049 26.951 4.25049C27.2486 4.25049 27.5431 4.31032 27.8171 4.42643C28.0911 4.54253 28.339 4.71254 28.546 4.92635C30.206 6.55635 31.846 8.20635 33.486 9.85635C34.086 10.4663 34.086 10.6363 33.486 11.2563C32.356 12.4063 31.216 13.5363 30.076 14.6763C29.426 15.3163 29.256 15.3163 28.616 14.6763L24.416 10.4763C23.696 9.76635 23.236 9.75634 22.526 10.4763C18.4727 14.5163 14.4293 18.5597 10.396 22.6063C9.676 23.3263 9.666 23.7864 10.396 24.4963C14.0493 28.1563 17.716 31.823 21.396 35.4963C21.4944 35.6512 21.6303 35.7788 21.7911 35.8671C21.952 35.9555 22.1325 36.0018 22.316 36.0018C22.4995 36.0018 22.68 35.9555 22.8409 35.8671C23.0017 35.7788 23.1376 35.6512 23.236 35.4963C27.3093 31.4363 31.3693 27.3763 35.416 23.3163C36.096 22.6463 36.096 22.1563 35.416 21.4763L31.146 17.1763C30.536 16.5563 30.526 16.3563 31.146 15.7663C32.276 14.6163 33.406 13.4663 34.536 12.3363C35.186 11.6863 35.406 11.6863 36.066 12.3363L40.736 17.0063C41.0193 17.2155 41.2495 17.4883 41.4081 17.8026C41.5668 18.117 41.6494 18.4642 41.6494 18.8163C41.6494 19.1685 41.5668 19.5157 41.4081 19.8301C41.2495 20.1444 41.0193 20.4172 40.736 20.6263C39.136 22.2363 37.496 23.8263 35.896 25.4363C32.896 28.4363 30.016 31.3763 27.046 34.3163C24.916 36.4263 22.786 38.5263 20.696 40.6663C19.416 41.9763 18.256 41.9863 16.976 40.6663C13.9293 37.633 10.886 34.593 7.84599 31.5463L4.906 28.6063C4.67574 28.4175 4.48872 28.1813 4.3576 27.9139C4.22649 27.6465 4.15432 27.3541 4.146 27.0563Z" fill="white"/>
<path d="M33.7359 22.3662C33.7286 22.5394 33.6847 22.7092 33.6071 22.8643C33.5296 23.0194 33.4201 23.1564 33.2859 23.2662C29.9192 26.6462 26.5392 30.0228 23.1459 33.3962C23.0409 33.5388 22.9038 33.6548 22.7457 33.7347C22.5877 33.8146 22.413 33.8562 22.2359 33.8562C22.0588 33.8562 21.8841 33.8146 21.726 33.7347C21.568 33.6548 21.4309 33.5388 21.3259 33.3962C18.3392 30.4295 15.3626 27.4528 12.3959 24.4662C11.7159 23.7862 11.7759 23.2262 12.5759 22.4662C14.5759 20.4062 16.6659 18.3662 18.7159 16.3162C19.8859 15.1462 21.0559 13.9662 22.2359 12.8062C23.1759 11.8662 23.6759 11.8562 24.6059 12.8062C25.5359 13.7562 26.6059 14.7562 27.5459 15.7462C28.1359 16.3462 28.1259 16.6162 27.5459 17.1862C26.9659 17.7562 26.6359 17.5962 26.1759 17.1162C24.4459 15.3162 24.5359 15.5362 22.9059 17.1162C20.6559 19.3562 18.4259 21.5962 16.1859 23.8462C15.4659 24.5662 15.4659 24.9462 16.1859 25.6462L20.1459 29.5662C20.8359 30.2562 21.2059 30.2962 21.8959 29.5662C24.4292 27.0528 26.9492 24.5362 29.4559 22.0162C30.1459 21.3162 30.1259 20.9562 29.4559 20.2562C29.1959 19.9862 28.9459 19.7162 28.6659 19.4662C28.5503 19.3907 28.4554 19.2877 28.3897 19.1663C28.324 19.045 28.2896 18.9092 28.2896 18.7712C28.2896 18.6332 28.324 18.4974 28.3897 18.376C28.4554 18.2547 28.5503 18.1516 28.6659 18.0762C29.1359 17.6062 29.5159 17.6062 30.0559 18.1462C31.1359 19.2062 32.1959 20.2762 33.2559 21.3462C33.5391 21.6133 33.7106 21.9777 33.7359 22.3662Z" fill="white"/>
<path d="M22.8661 45.7663C22.6002 45.791 22.3322 45.7563 22.0814 45.6646C21.8306 45.5729 21.6034 45.4266 21.4161 45.2363C20.7861 44.6463 20.1761 44.0163 19.5661 43.4063C19.3061 43.1563 19.2361 42.9263 19.7161 42.9063C20.3077 42.8536 20.8559 42.5741 21.2461 42.1263L42.0261 21.3363C42.254 21.1468 42.4421 20.9141 42.5794 20.6514C42.7168 20.3888 42.8006 20.1015 42.8261 19.8063C42.8261 19.3963 43.0461 19.4063 43.2861 19.6563C43.9361 20.2963 44.6161 20.9163 45.2061 21.6563C45.5702 22.0845 45.7522 22.6383 45.7129 23.1991C45.6736 23.7598 45.4164 24.2829 44.9961 24.6563C43.3761 26.3163 41.7161 27.9463 40.0761 29.5863L36.2561 33.4163C33.0761 36.6063 29.8861 39.7763 26.7161 42.9663C26.0361 43.6463 25.2961 44.2663 24.6561 44.9663C24.4515 45.2421 24.1794 45.4605 23.8659 45.6007C23.5524 45.7408 23.2081 45.7978 22.8661 45.7663Z" fill="white"/>
<path d="M0.00612792 22.8962C0.00133269 22.5736 0.0678721 22.2539 0.200983 21.9601C0.334093 21.6662 0.530484 21.4053 0.776125 21.1962C2.94612 19.0362 5.09613 16.8462 7.26613 14.6862C9.11613 12.8362 10.9961 11.0062 12.8461 9.15619C14.6961 7.30619 16.7761 5.15619 18.7461 3.15619C19.5961 2.29619 20.4561 1.43619 21.3361 0.606188C21.7003 0.243491 22.1859 0.0284862 22.6993 0.00263444C23.2126 -0.0232173 23.7173 0.141915 24.1161 0.466189C24.8361 1.05619 25.4861 1.75619 26.1161 2.46619C26.4061 2.74619 26.3561 2.94619 25.9261 2.96619C25.3538 3.02677 24.8271 3.30625 24.4561 3.74619L3.65613 24.5862C3.21782 24.9585 2.93871 25.4845 2.87613 26.0562C2.87613 26.2862 2.78613 26.6062 2.49613 26.3162C1.58399 25.5676 0.791519 24.6841 0.146127 23.6962C0.0301015 23.4464 -0.01818 23.1705 0.00612792 22.8962Z" fill="white"/>
</svg>
