<svg width="200" height="200" viewBox="0 0 200 200" fill="none" xmlns="http://www.w3.org/2000/svg">
<path d="M119.988 76.8706C125.509 76.8706 131.029 76.8706 136.55 76.8706C139.225 76.8706 142.412 77.0138 142.241 80.6793C142.07 84.3449 139.111 84.5167 136.379 84.6599C134.94 84.7885 133.493 84.7885 132.054 84.6599C125.822 83.9153 123.716 86.5499 123.517 92.9074C123.517 99.8948 125.822 102.272 132.708 102.014C144.091 101.613 155.73 101.842 167.255 102.014C170.527 102.014 174.824 101.842 174.995 106.453C175.166 111.063 171.096 110.691 168.051 110.748C163.954 110.748 162.673 113.068 162.73 116.791C162.73 121.86 162.73 126.928 162.73 131.997C162.892 137.102 161.753 142.163 159.422 146.699C157.091 151.236 153.645 155.096 149.412 157.914C147.563 159 146.057 160.59 145.065 162.5C144.073 164.409 143.637 166.562 143.806 168.71C143.806 171.774 143.55 175.669 139.31 175.64C135.07 175.611 135.212 172.06 135.269 169.168C135.269 164.758 133.306 163.212 129.123 163.24C109.915 163.24 90.7348 163.24 71.5266 163.24C66.9735 163.24 64.9246 164.901 65.0385 169.598C65.0385 172.461 64.6401 175.898 60.6561 175.697C57.2698 175.526 56.4445 172.404 56.6437 169.798C57.099 163.612 53.7981 160.205 49.245 156.911C45.6488 154.275 42.712 150.833 40.6672 146.856C38.6223 142.88 37.5256 138.479 37.464 134.002C37.2222 129.662 37.2222 125.312 37.464 120.972C37.7486 115.244 37.464 110.118 29.4961 110.748C28.9505 110.834 28.3931 110.802 27.8608 110.654C27.3284 110.506 26.8333 110.247 26.4082 109.892C25.9832 109.537 25.6378 109.096 25.395 108.597C25.1523 108.098 25.0176 107.552 25 106.997C25 103.532 27.6749 102.529 30.4067 102.415C37.8339 102.186 45.2896 102.214 52.7168 102.157C63.2742 102.157 63.2742 102.157 63.3026 91.2178C63.3026 76.8992 62.9896 62.5807 63.3026 48.4626C63.8717 29.3043 81.9986 18.3936 98.475 26.9561C101.784 28.7073 104.588 31.2877 106.617 34.448C108.646 37.6084 109.831 41.2418 110.057 44.9974C110.398 47.7179 110.455 50.7249 106.841 51.183C103.825 51.5553 102.971 49.0639 102.231 46.6298C98.8449 35.7763 93.2959 31.538 84.5312 32.9125C75.7666 34.2871 71.242 40.5301 71.1566 51.4981C71.1566 65.9885 71.2989 80.4789 71.1566 94.9693C71.1566 100.267 72.9778 102.358 78.2708 102.214C88.3444 101.985 98.418 101.928 108.492 102.214C115.435 102.415 115.293 98.0047 115.378 93.1364C115.464 88.2681 114.752 84.4021 108.463 84.9176C106.071 85.0703 103.67 84.9936 101.292 84.6885C98.9872 84.4594 96.9667 83.3712 96.9667 80.7366C96.9667 78.102 99.1295 77.1569 101.463 77.1283C107.695 77.1283 113.955 77.1283 120.187 77.1283L119.988 76.8706ZM100.325 110.863C84.7589 110.863 69.1931 111.006 53.6273 110.863C48.1921 110.863 45.6026 112.581 45.9156 118.337C46.2002 123.148 45.9156 127.988 45.9156 132.799C46.314 146.115 53.3143 154.477 66.6035 154.907C88.8282 155.594 111.138 155.594 133.363 154.907C146.652 154.477 153.538 146.058 153.937 132.684C153.937 128.102 153.738 123.52 153.937 118.967C154.335 113.24 152.087 110.748 146.083 110.863C130.972 111.035 115.634 110.863 100.325 110.863Z" fill="black"/>
</svg>
