<svg width="200" height="200" viewBox="0 0 200 200" fill="none" xmlns="http://www.w3.org/2000/svg">
<path d="M25.1213 120.043C25.1213 112.323 25.1213 104.634 25.1213 96.9147C25.1213 89.7138 24.151 82.3909 31.64 77.6615C33.9747 76.1969 33.338 72.9626 33.3683 70.4301C33.3683 62.1918 33.0954 53.923 33.7321 45.7457C33.9418 41.7792 35.5556 38.0192 38.2812 35.1462C41.0068 32.2731 44.6644 30.4768 48.592 30.0823C52.5196 29.6877 56.4577 30.7211 59.6939 32.9953C62.93 35.2695 65.2504 38.6343 66.235 42.4809C66.9627 45.0134 67.7814 48.0341 64.4765 48.98C61.1716 49.9259 61.0503 46.7831 60.4439 44.5863C60.1945 43.2406 59.6668 41.9628 58.895 40.8356C58.1231 39.7085 57.1244 38.7573 55.9637 38.0438C54.8029 37.3302 53.506 36.8703 52.1571 36.6938C50.8083 36.5172 49.4376 36.6281 48.134 37.0192C42.0701 38.1176 39.9477 42.6029 39.887 48.3392C39.887 55.0214 40.2812 61.7646 39.7355 68.4163C39.1594 75.7697 41.7366 78.1802 49.1953 78.1191C85.2456 77.7835 121.266 77.9666 157.316 77.9666C159.863 77.9666 162.44 77.9666 164.987 77.9666C171.263 78.5158 174.932 81.8722 174.962 88.3713C174.962 109.486 174.962 130.58 174.962 151.654C175.074 152.883 174.938 154.122 174.561 155.297C174.185 156.472 173.576 157.559 172.771 158.491C171.967 159.423 170.984 160.182 169.88 160.721C168.777 161.261 167.577 161.57 166.351 161.631C162.47 162.058 159.317 162.546 158.771 167.306C158.692 168.088 158.347 168.819 157.794 169.374C157.242 169.93 156.516 170.277 155.739 170.358C155.29 170.426 154.832 170.4 154.393 170.281C153.955 170.162 153.546 169.952 153.192 169.665C152.838 169.378 152.548 169.02 152.339 168.614C152.131 168.208 152.008 167.763 151.98 167.306C151.161 162.119 147.705 161.784 143.52 161.814C115.646 161.814 87.7924 161.814 59.9588 161.814C55.9565 161.814 52.0757 161.631 51.7725 167.276C51.7725 168.085 51.453 168.861 50.8844 169.433C50.3158 170.006 49.5446 170.327 48.7405 170.327C47.9718 170.329 47.2311 170.037 46.6682 169.51C46.1053 168.983 45.7623 168.261 45.7085 167.489C45.2537 162.058 41.6456 161.997 37.5221 161.906C27.941 161.631 25.3942 158.855 25.1213 149.304C24.8484 139.754 25.1213 129.837 25.1213 120.043ZM85.3366 120.043C85.3366 110.523 85.3366 101.003 85.3366 91.4835C85.3366 86.6626 83.5174 84.4047 78.5752 84.4352C65.0222 84.4352 51.4692 84.4352 37.9163 84.4352C33.247 84.4352 30.7608 86.571 30.7608 91.3614C30.7608 110.401 30.7608 129.441 30.7608 148.48C30.5961 149.453 30.668 150.451 30.9704 151.389C31.2728 152.327 31.7965 153.177 32.4969 153.867C33.1974 154.557 34.0535 155.066 34.9921 155.35C35.9306 155.634 36.9236 155.685 37.8859 155.498C51.4389 155.498 64.9919 155.498 78.5449 155.498C83.4264 155.498 85.4275 153.362 85.3668 148.511C85.2456 139.022 85.3366 129.502 85.3366 119.982V120.043ZM131.029 118.822C120.295 118.822 109.562 118.822 98.8592 118.822C94.0687 118.822 91.7341 120.318 91.8857 125.474C92.1282 133.163 92.0979 140.73 91.8857 148.602C91.8857 153.423 93.5835 155.681 98.556 155.681C119.497 155.559 140.448 155.559 161.409 155.681C166.867 155.681 169.413 153.332 169.323 147.809C169.323 140.608 169.08 133.407 169.323 126.206C169.626 120.318 167.049 118.639 161.591 118.792C151.494 118.945 141.246 118.761 131.029 118.761V118.822ZM130.271 112.11C137.183 112.11 144.096 112.11 150.979 112.11C171.93 111.713 169.171 115.832 169.413 93.1007C169.413 86.8151 166.836 84.3437 160.651 84.4352C144.309 84.6183 127.936 84.2826 111.594 84.4352C88.8234 84.7403 92.2798 80.3465 91.9159 105.367C91.9159 110.432 94.0686 112.14 98.8289 112.079C109.32 111.927 119.81 112.018 130.271 112.049V112.11Z" fill="black"/>
<path d="M164.016 97.9517C163.561 103.261 160.802 106.77 155.496 106.953C154.402 107.03 153.304 106.876 152.272 106.5C151.241 106.124 150.299 105.534 149.508 104.77C148.717 104.005 148.093 103.082 147.678 102.06C147.263 101.038 147.065 99.9401 147.098 98.8366C146.92 97.7457 146.983 96.6289 147.28 95.5649C147.578 94.5009 148.104 93.5155 148.82 92.6778C149.537 91.8402 150.428 91.1708 151.429 90.7166C152.43 90.2625 153.519 90.0346 154.617 90.0491C155.761 89.876 156.93 89.9492 158.044 90.2637C159.158 90.5782 160.194 91.127 161.082 91.8738C161.97 92.6206 162.691 93.5484 163.197 94.5961C163.703 95.6438 163.982 96.7875 164.016 97.9517Z" fill="black"/>
<path d="M130.119 89.8967C135.546 90.3543 139.215 92.9479 139.033 98.4706C139.102 99.6212 138.936 100.774 138.546 101.857C138.155 102.941 137.549 103.933 136.764 104.772C135.979 105.611 135.031 106.28 133.98 106.737C132.928 107.194 131.795 107.43 130.649 107.43C129.504 107.43 128.371 107.194 127.319 106.737C126.268 106.28 125.32 105.611 124.535 104.772C123.75 103.933 123.143 102.941 122.753 101.857C122.363 100.774 122.197 99.6212 122.266 98.4706C122.173 97.3778 122.308 96.2775 122.661 95.2398C123.014 94.2022 123.578 93.2498 124.316 92.4433C125.055 91.6368 125.952 90.9939 126.951 90.5555C127.95 90.117 129.029 89.8927 130.119 89.8967Z" fill="black"/>
</svg>
