<svg width="200" height="200" viewBox="0 0 200 200" fill="none" xmlns="http://www.w3.org/2000/svg">
<path d="M122.401 126.01C122.401 103.096 122.401 103.153 144.797 103.038C150.324 103.038 156.859 105.123 161.205 102.053C166.013 98.6342 162.875 91.5947 163.71 86.1774C165.264 76.2988 165.236 66.2174 167.682 56.4546C168.316 53.9343 168.517 50.371 172.173 51.0952C175.829 51.8195 175.052 55.0931 174.62 57.7293C172.403 72.2141 169.554 86.525 169.726 101.184C170.015 113.622 171.393 126.011 173.843 138.207C174.283 140.357 174.581 142.535 174.735 144.725C174.897 145.58 174.72 146.466 174.241 147.192C173.762 147.917 173.02 148.425 172.173 148.607C171.737 148.676 171.291 148.655 170.863 148.545C170.435 148.435 170.033 148.239 169.683 147.968C169.333 147.697 169.041 147.357 168.826 146.968C168.611 146.58 168.476 146.152 168.431 145.71C167.285 141.733 166.381 137.689 165.725 133.6C165.063 128.994 163.192 126.706 158.183 126.909C150.669 127.227 143.127 127.198 135.614 126.909C130.49 126.735 128.59 128.907 128.878 133.861C129.041 137.28 128.974 140.707 128.676 144.116C128.532 146.057 127.899 148.259 125.423 148.259C122.948 148.259 122.545 145.999 122.545 144.03C122.343 138.236 122.401 132.123 122.401 126.01ZM146.783 119.232C150.669 119.232 154.527 119.232 158.298 119.232C160.515 119.232 163.681 120.043 163.681 116.19C163.776 115.516 163.718 114.828 163.51 114.18C163.302 113.532 162.951 112.94 162.482 112.449C162.013 111.958 161.44 111.58 160.804 111.345C160.169 111.11 159.489 111.023 158.816 111.091C150.324 111.091 141.861 111.091 133.368 111.091C130.922 111.091 129.137 112.047 129.022 114.886C128.906 117.725 130.749 119.174 133.57 119.203L146.783 119.232Z" fill="black"/>
<path d="M78.0113 126.966C78.0113 132.76 78.0113 138.699 78.0113 144.55C78.0113 146.52 77.4644 148.693 74.816 148.548C72.7721 148.403 71.9373 146.607 71.9373 144.898C71.5399 141.747 71.4435 138.565 71.6494 135.396C72.3403 128.791 69.4615 126.705 63.2148 127.14C56.2196 127.574 49.138 127.458 42.114 127.14C41.2216 126.971 40.3032 127.006 39.4256 127.24C38.548 127.474 37.7334 127.902 37.0412 128.494C36.3489 129.085 35.7964 129.824 35.424 130.657C35.0516 131.49 34.8687 132.397 34.8885 133.31C34.3381 137.22 33.5401 141.091 32.4992 144.898C31.9522 146.984 30.9735 149.475 28.1236 148.693C25.2737 147.911 25.5327 145.477 25.907 143.247C27.0009 136.004 28.2675 128.762 29.3326 121.549C32.2113 102.255 30.4265 83.164 26.9721 64.0731C26.2236 59.9305 22.1071 52.6881 28.6129 51.5293C34.1976 50.5443 32.9886 58.482 33.8522 62.5088C35.9532 73.7924 37.0514 85.242 37.1338 96.7217C37.2778 101.386 38.8323 103.298 43.5822 103.182C52.5637 102.979 61.5452 103.327 70.4979 103.182C76.2553 103.037 78.5006 105.355 78.2415 111.004C77.9825 116.653 78.2415 121.751 78.2415 127.111L78.0113 126.966ZM53.4272 119.26C58.0331 119.26 62.6103 119.26 67.2162 119.26C67.7639 119.34 68.3225 119.292 68.8486 119.119C69.3748 118.946 69.8543 118.654 70.2498 118.264C70.6452 117.875 70.946 117.398 71.1289 116.873C71.3117 116.347 71.3717 115.786 71.304 115.233C71.304 112.916 70.21 111.351 67.9071 111.322C58.6952 111.322 49.4834 111.178 40.3004 111.322C37.1914 111.322 36.5294 114.219 36.6445 116.74C36.7597 119.26 39.2065 119.231 41.0489 119.26C45.2518 119.318 49.3683 119.26 53.5136 119.26H53.4272Z" fill="black"/>
<path d="M97.5004 121.201C97.5004 113.64 97.3276 106.05 97.5004 98.4889C97.5004 93.7089 95.7156 91.9418 91.0521 92.0577C82.56 92.2605 74.0678 92.0577 65.5757 92.0577C63.2439 92.0577 59.9622 92.3763 59.8183 89.1607C59.588 85.2209 63.1288 85.5974 65.5757 85.5684C88.6052 85.5684 111.635 85.5684 134.664 85.5684C137.198 85.5684 140.767 85.1339 140.652 89.0448C140.652 92.3184 137.255 91.9418 134.895 91.9418C126.892 91.9418 118.889 92.2315 110.886 91.9418C105.474 91.739 103.546 93.9117 103.632 99.2421C103.833 112.423 103.632 125.604 103.632 138.814C103.719 140.03 103.719 141.249 103.632 142.465C103.2 145.188 104.093 149.504 100.235 149.417C96.3777 149.33 97.5004 144.956 97.3565 142.32C97.3852 135.367 97.5291 128.27 97.5004 121.201Z" fill="black"/>
</svg>
