<svg width="200" height="200" viewBox="0 0 200 200" fill="none" xmlns="http://www.w3.org/2000/svg">
<path d="M174.853 118.397C175.251 121.368 174.835 124.391 173.651 127.141C172.466 129.891 170.557 132.263 168.13 134.001C166.559 135.016 165.304 136.456 164.51 138.157C163.715 139.857 163.414 141.748 163.64 143.613C163.789 145.86 163.813 148.607 160.663 148.956C157.512 149.306 157.041 146.459 157.14 144.212C157.314 139.943 155.502 139.219 151.434 139.219C117.38 139.469 83.3173 139.469 49.2466 139.219C45.0291 139.219 42.8459 139.694 43.1188 144.387C43.2428 146.534 42.7716 148.931 39.9682 148.956C36.743 148.956 36.4205 146.26 36.6437 143.963C36.8926 141.877 36.5267 139.764 35.5915 137.887C34.6564 136.009 33.1933 134.45 31.3843 133.402C22.8749 127.36 22.0314 107.263 34.014 100.597C35.7825 99.7395 37.2243 98.3245 38.1199 96.5669C39.0156 94.8092 39.3162 92.8052 38.9758 90.8598C38.7525 86.4658 38.8021 82.0218 38.9758 77.6278C38.9853 74.2451 39.6618 70.8979 40.966 67.7802C42.2703 64.6625 44.1765 61.8362 46.5741 59.4652C48.9716 57.0943 51.8129 55.2257 54.9332 53.9679C58.0536 52.71 61.391 52.0877 64.7521 52.1373C88.37 51.9542 111.988 51.9542 135.606 52.1373C142.179 52.0929 148.513 54.6194 153.271 59.184C158.029 63.7486 160.839 69.9945 161.109 76.6042C161.258 78.9153 161.258 81.2337 161.109 83.5448C160.638 91.4091 160.638 98.5244 169.147 103.293C174.332 106.214 175.449 112.406 174.853 118.397ZM100.055 102.194C82.6888 102.194 65.3226 102.045 47.9565 102.194C38.033 102.319 32.0045 107.937 31.6572 116.775C31.2602 127.186 36.0235 132.628 46.6913 133.852C48.7782 134.035 50.8741 134.094 52.9679 134.026H128.907C136.623 134.026 144.388 134.251 152.104 133.901C162.027 133.477 167.882 128.334 168.353 119.945C169.023 108.586 163.193 102.294 151.483 102.169C134.341 102.07 117.198 102.194 100.055 102.194ZM100.204 57.7048C89.9577 57.7048 79.7117 57.7048 69.4657 57.7048C51.7026 57.7048 42.97 68.1406 45.4013 85.7917C45.8975 89.4867 47.4604 89.212 50.0405 88.0386C52.6206 86.8652 52.5214 85.0178 52.7943 82.8707C53.8114 75.5806 57.111 72.5347 64.4047 72.335C70.8798 72.1602 77.3798 72.335 83.8549 72.335C90.3299 72.335 95.0683 75.0812 96.4328 82.0218C96.9289 84.5184 97.7973 86.5157 100.849 86.316C103.9 86.1162 103.826 83.9691 104.074 81.7971C104.818 75.5056 108.713 72.6346 114.692 72.4099C119.927 72.2351 125.161 72.4099 130.396 72.4099C143.421 72.4099 143.445 72.4098 147.539 85.2424C147.906 86.3446 148.615 87.2989 149.562 87.9643C150.509 88.6296 151.644 88.9708 152.798 88.9374C154.485 89.1122 154.51 87.4644 154.634 86.2411C156.495 68.565 149.499 58.0793 131.587 57.8546C121.142 57.6049 110.673 57.7048 100.204 57.7048ZM150.64 96.2525C149.368 94.8939 147.829 93.8171 146.12 93.0906C144.411 92.3641 142.571 92.004 140.716 92.0332H59.443C57.6399 91.904 55.8326 92.2184 54.1772 92.9491C52.5218 93.6799 51.0679 94.805 49.9412 96.2275L150.64 96.2525ZM125.335 86.3909C128.883 86.3909 132.43 86.3909 135.978 86.3909C138.136 86.3909 140.344 86.1412 140.468 83.2452C140.591 82.6571 140.586 82.0491 140.452 81.4635C140.318 80.8778 140.059 80.3284 139.693 79.8534C139.328 79.3784 138.864 78.9891 138.333 78.7126C137.803 78.4361 137.22 78.2789 136.623 78.2519C129.329 77.9773 122.036 77.9773 114.717 78.1271C111.963 78.1271 110.747 80.2243 110.896 82.9206C111.045 85.6169 113.055 86.2661 115.312 86.291L125.335 86.3909ZM73.7825 86.3909C77.5286 86.3909 81.2251 86.3909 85.0456 86.3909C87.3777 86.3909 89.1887 85.567 89.2383 82.8207C89.2879 80.0744 88.2459 78.4017 85.7899 78.3518C78.3472 78.177 70.7557 78.1271 63.2635 78.3518C60.7826 78.3518 59.4431 80.8484 59.6663 83.345C59.8896 85.8416 61.775 86.2411 63.7597 86.2661L73.7825 86.3909Z" fill="black"/>
<path d="M100.724 127.385H51.2557C49.3814 127.416 47.5074 127.307 45.6489 127.061C45.008 127.009 44.4062 126.73 43.9515 126.272C43.4969 125.815 43.2191 125.209 43.1681 124.564C43.1125 124.189 43.1334 123.806 43.2294 123.439C43.3254 123.073 43.4946 122.729 43.7267 122.43C43.9587 122.131 44.2488 121.883 44.5793 121.7C44.9098 121.518 45.2737 121.405 45.6489 121.368C47.4756 120.977 49.3386 120.785 51.2061 120.794C84.1686 120.794 117.139 120.794 150.119 120.794C150.746 120.757 151.376 120.757 152.004 120.794C154.609 121.069 158.231 120.545 158.082 124.414C157.933 128.284 154.535 127.335 152.153 127.335C134.936 127.385 117.818 127.385 100.724 127.385Z" fill="black"/>
</svg>
