<svg width="200" height="200" viewBox="0 0 200 200" fill="none" xmlns="http://www.w3.org/2000/svg">
<path d="M151.098 80.0686C143.251 79.2328 135.461 78.57 129.161 73.3536C127.385 71.8838 126.297 71.4515 124.235 73.0654C119.786 76.4659 114.517 78.6144 108.971 79.2905C108.006 79.2899 107.053 79.5009 106.177 79.9087C105.301 80.3165 104.524 80.9114 103.9 81.6519C103.276 82.3924 102.82 83.2609 102.563 84.1969C102.306 85.1329 102.255 86.114 102.413 87.0719C102.642 96.5248 102.613 106.007 102.413 115.488C102.413 120.416 104.331 122.578 109.286 122.463C116.044 122.319 122.803 122.463 129.562 122.463C132.597 122.463 135.547 123.097 135.547 127.131C135.547 131.166 132.683 131.541 129.504 131.541C122.488 131.541 115.5 131.541 108.484 131.541C104.131 131.541 102.384 133.357 102.441 137.622C102.441 144.913 102.441 152.205 102.441 159.496C102.441 161.283 102.441 163.906 99.5775 163.617C97.3724 163.416 97.7161 161.052 97.6875 159.467C97.6875 152.176 97.487 144.885 97.6875 137.593C97.6875 133.27 96.141 131.426 91.7593 131.541C84.2561 131.714 76.7817 131.541 69.3071 131.541C66.4433 131.541 63.8086 131.08 63.5795 127.477C63.3503 123.875 66.0996 122.549 69.3071 122.491C76.2948 122.491 83.311 122.232 90.2988 122.491C95.3391 122.636 97.8593 121.05 97.6875 115.459C97.3724 105.978 97.4584 96.496 97.6875 87.043C97.6875 82.6624 96.5133 80.2128 91.9598 79.6076C85.8979 79.1052 80.1328 76.7523 75.4355 72.8636C72.7435 70.4428 71.2257 72.4313 69.1638 73.5841C63.4821 76.8605 57.0894 78.6865 50.5446 78.9025C43.9997 79.1186 37.502 77.7181 31.6191 74.8235C29.6677 74.1498 27.9774 72.8732 26.7894 71.1757C25.6015 69.4782 24.9766 67.4466 25.0037 65.3705C24.8605 60.2694 28.8699 59.8082 32.1346 58.5402C51.9809 50.9605 71.8845 43.4962 91.6448 35.7725C94.4202 34.6025 97.3991 34 100.408 34C103.417 34 106.396 34.6025 109.171 35.7725C128.645 43.6691 148.234 51.2776 167.737 59.0301C171.087 60.3558 174.695 61.4798 174.982 66.1198C175.268 70.7598 172.118 73.5266 168.424 75.6304C162.997 78.2497 157.108 79.7582 151.098 80.0686ZM120.97 63.3531L103.444 43.8709C101.754 41.9976 99.9499 41.3924 97.8879 43.3521C91.473 49.3851 85.039 55.3892 78.5858 61.3645L80.0464 63.3531H120.97ZM34.6261 62.7767C57.7371 65.6587 78.8436 66.4369 90.4134 41.5942L34.6261 62.7767ZM163.068 63.9295L163.269 62.7479C154.362 59.2031 145.485 55.6006 136.578 52.0845C127.672 48.5685 118.937 45.1966 110.117 41.7671C114.929 48.8547 120.332 55.517 126.268 61.6816C127.002 62.4544 127.895 63.0561 128.885 63.4444C129.874 63.8328 130.936 63.9984 131.996 63.9295H163.068ZM78.6145 69.0882C92.2463 77.5036 113.553 76.9561 118.278 69.0882H78.6145ZM133.027 69.4053C138.141 73.0023 144.229 74.9313 150.468 74.9313C156.706 74.9313 162.795 73.0023 167.908 69.4053H133.027Z" fill="black"/>
<path d="M150.926 118.745C150.277 121.122 149.443 123.444 148.434 125.69C142.878 136.383 140.244 147.248 144.969 159.093C145.685 160.908 147.604 164.165 143.909 165.145C140.673 165.981 140.215 162.955 139.556 160.591C138.898 158.228 138.21 156.441 137.695 154.337C136.635 149.899 134.831 146.931 129.447 147.104C124.063 147.277 119.681 146.902 117.82 153.04C116.904 156.067 115.586 158.804 114.469 161.888C113.639 164.079 112.464 166.067 109.772 165.116C107.08 164.165 108.427 161.946 108.942 160.188C109.687 157.652 110.517 155.116 111.376 152.579C115.3 141.051 115.328 140.561 127.5 141.051C134.029 141.311 137.179 138.631 139.127 132.867C141.074 127.103 143.365 122.088 145.57 116.699C146.229 115.027 147.374 113.817 149.379 114.105C151.384 114.393 151.527 115.805 150.926 118.745Z" fill="black"/>
<path d="M68.8193 147.334C62.8053 146.152 60.2279 149.121 59.3974 154.597C58.8296 157.452 58.0347 160.256 57.0204 162.983C56.9203 163.403 56.7379 163.797 56.4836 164.145C56.2294 164.492 55.9085 164.784 55.5401 165.004C55.1717 165.225 54.7633 165.368 54.3387 165.427C53.9142 165.486 53.4821 165.459 53.0683 165.347C50.8345 164.828 50.9777 163.012 51.2641 161.254C51.2341 161.015 51.2341 160.773 51.2641 160.534C58.7673 146.412 52.066 133.875 46.8539 121.166C46.5961 120.503 46.2811 119.84 46.0806 119.148C45.4792 117.304 44.5342 115.2 47.083 114.162C49.6318 113.125 50.8345 114.768 51.6364 116.67C54.1566 122.693 56.82 128.688 58.882 134.913C60.3425 139.293 62.6049 141.368 67.2729 140.907C69.9076 140.648 72.5995 141.051 75.2342 140.907C76.1867 140.743 77.1623 140.771 78.1038 140.991C79.0453 141.21 79.9338 141.616 80.7177 142.185C81.5015 142.754 82.165 143.474 82.6691 144.303C83.1732 145.133 83.508 146.056 83.6539 147.017C84.914 151.455 86.7468 155.663 88.1501 160.101C88.6942 161.802 89.9543 164.078 87.291 165.116C84.6276 166.153 83.2529 164.309 82.3938 162.234C81.3937 160.016 80.5982 157.71 80.0169 155.346C78.7569 148.833 75.177 145.951 68.8193 147.334Z" fill="black"/>
</svg>
