<svg width="200" height="200" viewBox="0 0 200 200" fill="none" xmlns="http://www.w3.org/2000/svg">
<path d="M174.816 106.911C174.816 111.128 174.816 115.319 174.816 119.536C175.015 128.492 170.403 134.306 162.42 137.349C158.801 138.772 156.743 140.318 157.14 144.46C157.313 146.531 157.14 149.051 154.14 148.876C151.512 148.876 151.413 146.381 151.661 144.635C152.033 139.919 149.95 138.447 145.413 138.472C115.117 138.622 84.8298 138.622 54.5505 138.472C50.2119 138.472 47.7574 139.545 48.1293 144.435C48.3028 146.506 48.1294 149.026 45.1048 148.851C42.4768 148.851 42.4272 146.356 42.6256 144.585C42.9726 140.568 41.1876 138.797 37.4688 137.374C33.6375 136.185 30.3225 133.719 28.0695 130.382C25.8164 127.044 24.7596 123.034 25.0728 119.012C25.2711 110.604 25.2959 102.196 25.0728 93.788C24.7649 90.6254 25.4388 87.4445 27.0016 84.6832C28.5645 81.9219 30.9395 79.7161 33.7996 78.3694C35.0167 77.8198 36.0411 76.9143 36.7397 75.7707C37.4384 74.6271 37.7788 73.2984 37.7166 71.9574C38.7579 58.3101 46.5921 51.0249 60.1534 51C86.5982 51 113.117 51 139.711 51C153.272 51 161.23 58.4847 162.321 71.8326C162.52 74.4772 162.718 76.6478 165.544 77.9951C172.585 81.3383 175.461 87.1515 174.94 94.9107C174.618 98.9275 174.816 102.919 174.816 106.911ZM100.217 56.6884C86.8544 56.6884 73.4668 56.5138 60.1039 56.6884C49.6912 56.888 43.9146 62.327 43.4188 71.658C43.4188 73.8036 43.1709 76.074 45.5014 77.1468C55.4182 81.6377 57.1288 90.2951 56.5338 99.8008C56.1372 106.238 58.6163 108.134 64.8391 108.059C87.8213 107.76 110.803 108.059 133.81 107.934C143.132 107.934 143.231 107.934 143.231 98.5034C143.231 89.8709 144.818 82.1367 153.148 77.6458C153.945 77.1634 154.597 76.4721 155.033 75.6459C155.47 74.8198 155.675 73.8898 155.627 72.9553C156.619 63.1503 150.669 56.888 139.513 56.6635C126.546 56.4888 113.382 56.6884 100.217 56.6884ZM100.217 132.834H135.298C143.331 132.834 143.331 132.834 143.355 124.101C143.355 114.371 143.355 114.271 134.951 114.122H68.434C56.2611 114.122 56.4595 114.122 56.5338 126.197C56.5338 131.187 58.2196 132.884 63.1533 132.784C75.4501 132.659 87.7966 132.834 100.118 132.834H100.217ZM50.6333 109.88C50.6333 104.441 50.7573 98.9774 50.6333 93.5135C50.435 86.7523 46.7162 82.8352 40.8901 82.8352C35.064 82.8352 30.9733 86.7523 30.8493 93.3389C30.6262 102.146 30.6014 110.978 30.8493 119.785C31.0973 127.395 36.6506 132.385 44.2618 132.834C48.6747 133.108 50.9308 131.736 50.7324 126.896C50.311 121.232 50.4598 115.569 50.4598 109.83L50.6333 109.88ZM149.479 109.83C149.479 115.718 149.479 121.582 149.479 127.47C149.479 130.139 149.826 132.335 153.297 132.834C155.167 133.147 157.082 133.067 158.919 132.598C160.757 132.129 162.478 131.282 163.974 130.109C165.47 128.937 166.708 127.465 167.61 125.787C168.511 124.109 169.058 122.26 169.214 120.359C169.61 111.153 169.511 101.872 169.214 92.6403C169.214 89.9935 168.169 87.4552 166.309 85.5836C164.449 83.7121 161.927 82.6606 159.297 82.6606C156.667 82.6606 154.144 83.7121 152.284 85.5836C150.425 87.4552 149.38 89.9935 149.38 92.6403C149.281 98.4784 149.479 104.167 149.479 109.83Z" fill="black"/>
</svg>
